<?xml version="1.0" standalone="no"?>
<!DOCTYPE svg PUBLIC "-//W3C//DTD SVG 20010904//EN"
 "http://www.w3.org/TR/2001/REC-SVG-20010904/DTD/svg10.dtd">
<svg version="1.0" xmlns="http://www.w3.org/2000/svg"
 width="1583.000000pt" height="1583.000000pt" viewBox="0 0 1583.000000 1583.000000"
 preserveAspectRatio="xMidYMid meet">
<metadata>
Created by potrace 1.14, written by Peter Selinger 2001-2017
</metadata>
<g transform="translate(0.000000,1583.000000) scale(0.100000,-0.100000)"
fill="#000000" stroke="none">
<path d="M10049 13723 c-12 -15 -12 -16 1 -8 12 6 13 6 2 -6 -11 -12 -14 -12
-22 1 -7 12 -12 12 -21 3 -10 -10 -15 -9 -25 5 -12 15 -12 14 -8 -8 5 -25 5
-25 -11 -5 -17 20 -17 20 -11 -5 3 -14 3 -19 0 -12 -3 6 -12 12 -20 12 -8 0
-14 5 -14 12 0 6 -3 8 -6 5 -4 -4 -1 -13 5 -21 7 -8 8 -17 3 -20 -6 -3 -13 1
-16 10 -3 8 -10 12 -16 9 -6 -4 -8 -10 -5 -15 3 -5 1 -11 -4 -14 -5 -4 -13 -1
-17 5 -5 8 -3 9 7 4 8 -5 11 -4 6 0 -12 13 -45 16 -52 5 -4 -6 -11 -7 -17 -4
-7 5 -8 2 -3 -5 5 -9 10 -10 18 -2 14 14 27 14 27 0 0 -5 -4 -8 -9 -4 -5 3
-12 1 -16 -5 -4 -6 -12 -7 -24 -1 -13 7 -20 5 -29 -10 -7 -11 -17 -17 -23 -14
-5 4 -17 1 -26 -7 -9 -7 -14 -8 -10 -2 4 7 -1 18 -10 25 -13 11 -15 11 -9 1 4
-7 2 -20 -5 -28 -12 -14 -14 -14 -25 1 -11 15 -13 14 -19 -5 -6 -20 -7 -21
-21 -3 -10 13 -13 14 -9 2 3 -9 -4 -23 -17 -35 l-23 -19 20 24 20 24 -22 -12
c-13 -6 -23 -16 -23 -22 0 -6 -5 -7 -10 -4 -6 4 -7 12 -3 18 3 7 -3 3 -15 -7
-24 -21 -31 -36 -8 -17 10 9 15 8 19 -2 4 -11 -2 -13 -25 -11 -24 3 -29 1 -24
-12 3 -8 2 -13 -3 -9 -17 10 -40 -6 -34 -23 4 -10 -3 -6 -15 8 l-21 25 5 -25
c5 -21 4 -22 -6 -7 -6 9 -16 17 -23 17 -7 0 -6 -4 3 -10 13 -9 13 -11 1 -19
-8 -5 -22 -8 -32 -6 -10 2 -23 -3 -29 -11 -7 -7 -17 -11 -24 -7 -6 3 -2 -3 8
-15 11 -12 14 -22 8 -22 -6 0 -13 6 -15 13 -4 8 -12 4 -25 -13 -17 -20 -23
-22 -35 -12 -10 8 -17 9 -21 3 -4 -5 2 -15 11 -21 13 -8 14 -10 3 -9 -8 1 -24
1 -35 0 -17 -1 -18 -3 -5 -11 12 -8 10 -10 -8 -10 -13 0 -20 -4 -17 -10 3 -5
1 -10 -5 -10 -6 0 -8 -5 -5 -10 4 -6 3 -10 -2 -9 -25 4 -44 -2 -37 -13 6 -10
4 -10 -7 0 -7 6 -18 12 -24 12 -5 0 -3 -4 5 -10 12 -8 12 -11 -3 -28 -9 -10
-14 -22 -10 -27 5 -4 2 -5 -5 -1 -7 4 -10 12 -7 17 4 5 -1 9 -9 9 -8 0 -17 -9
-21 -19 -4 -12 -13 -18 -24 -16 -14 3 -17 -1 -14 -15 4 -15 1 -18 -16 -15 -18
3 -20 0 -17 -21 4 -20 2 -23 -8 -15 -17 15 -35 -4 -36 -36 0 -5 -5 -1 -10 7
-8 13 -10 12 -10 -2 0 -18 -10 -22 -40 -19 -13 2 -13 0 -1 -8 8 -5 21 -7 30
-3 17 6 16 4 -13 -18 -18 -13 -19 -13 -11 0 5 10 1 9 -13 -3 -12 -12 -26 -16
-34 -11 -10 6 -10 4 1 -9 10 -12 10 -17 2 -17 -8 0 -10 -8 -6 -22 4 -16 4 -19
-3 -9 -11 16 -36 5 -29 -14 4 -8 -3 -11 -17 -10 -13 2 -23 -2 -23 -9 -1 -25
-9 -42 -26 -54 -9 -7 -15 -18 -11 -23 3 -5 0 -8 -8 -7 -7 2 -12 -2 -11 -9 2
-8 -4 -10 -14 -6 -12 5 -15 2 -10 -10 4 -11 2 -14 -9 -10 -8 3 -14 -1 -14 -10
0 -9 -5 -19 -12 -23 -6 -4 -8 -3 -5 3 3 5 0 10 -8 10 -10 0 -11 -5 -5 -18 7
-12 5 -20 -4 -28 -11 -9 -15 -9 -19 1 -3 7 -6 3 -6 -9 -1 -12 -6 -25 -13 -29
-7 -5 -8 -3 -3 6 5 9 4 11 -4 6 -6 -4 -9 -11 -6 -16 3 -4 -7 -15 -21 -25 -21
-13 -23 -19 -13 -31 10 -12 9 -13 -5 -8 -12 5 -15 2 -10 -10 6 -16 -10 -23
-19 -8 -2 4 -2 1 -1 -5 2 -7 -1 -13 -6 -13 -5 0 -7 -7 -3 -16 4 -10 -1 -17
-15 -21 -14 -3 -19 -11 -17 -25 4 -16 2 -18 -11 -7 -12 10 -13 9 -8 -6 6 -14
4 -16 -6 -10 -9 5 -11 4 -6 -4 4 -6 -1 -19 -11 -29 -11 -9 -14 -13 -7 -9 7 5
15 3 20 -4 4 -7 3 -10 -2 -6 -10 6 -44 -16 -47 -30 -1 -4 -6 -7 -12 -5 -5 1
-1 -5 10 -14 16 -14 17 -16 3 -11 -10 4 -18 2 -18 -4 0 -6 -4 -8 -9 -5 -4 3
-7 -6 -5 -20 2 -20 0 -23 -11 -14 -10 8 -15 8 -21 -1 -4 -8 -3 -9 4 -5 7 4 11
-3 9 -23 -1 -16 -6 -29 -12 -28 -5 1 -9 -5 -9 -14 1 -12 -5 -16 -21 -15 -12 2
-22 -3 -22 -10 0 -7 5 -12 10 -11 5 1 11 -4 12 -11 2 -7 1 -8 -1 -3 -3 6 -12
7 -20 4 -13 -5 -13 -7 -2 -14 10 -7 9 -9 -4 -9 -10 0 -18 -5 -18 -11 0 -5 6
-7 13 -3 6 4 4 -2 -6 -14 -11 -11 -16 -25 -12 -31 4 -7 -1 -8 -12 -4 -10 3
-15 3 -11 -2 4 -4 0 -14 -10 -22 -9 -8 -12 -12 -5 -9 6 4 15 1 19 -5 4 -7 3
-9 -3 -6 -6 4 -23 -5 -37 -18 -31 -28 -24 -34 8 -7 20 16 20 16 6 -3 -8 -10
-23 -28 -33 -38 -14 -14 -16 -21 -7 -32 10 -12 8 -13 -9 -10 -19 3 -20 1 -10
-17 7 -13 7 -18 1 -14 -6 3 -13 2 -17 -4 -3 -5 -1 -10 5 -10 6 0 9 -4 5 -10
-3 -5 -11 -7 -19 -4 -7 3 -13 -2 -13 -10 0 -8 5 -12 11 -9 6 4 5 -1 -2 -10 -8
-9 -10 -22 -6 -28 5 -8 3 -9 -6 -4 -10 6 -12 4 -6 -10 5 -15 4 -16 -8 -6 -9 8
-16 8 -20 2 -4 -5 -2 -12 3 -16 14 -8 9 -44 -5 -38 -7 2 -11 -3 -11 -14 1 -9
-4 -18 -12 -18 -8 0 -15 -11 -16 -24 -1 -14 -7 -27 -13 -29 -7 -2 -12 -8 -12
-14 0 -6 6 -5 15 2 9 7 18 10 22 6 3 -3 1 -6 -6 -6 -8 0 -11 -8 -8 -20 3 -11
2 -18 -2 -15 -5 2 -16 -2 -26 -9 -14 -10 -15 -15 -5 -21 9 -6 11 -4 5 5 -5 9
-4 11 4 6 15 -9 3 -29 -14 -23 -8 4 -12 -5 -11 -26 1 -22 -3 -31 -12 -29 -9 2
-11 -4 -7 -18 5 -16 3 -19 -12 -14 -16 6 -15 5 2 -9 17 -14 18 -16 3 -17 -9 0
-20 -5 -24 -12 -5 -8 -2 -9 9 -5 9 3 19 1 23 -5 4 -7 3 -8 -4 -4 -7 4 -12 2
-12 -4 0 -6 -4 -8 -10 -5 -6 4 -10 -7 -10 -25 0 -22 -4 -29 -12 -24 -9 5 -8 2
1 -9 12 -15 12 -17 -4 -11 -13 5 -16 3 -13 -7 3 -8 12 -13 19 -11 8 1 3 -7
-10 -18 -13 -11 -18 -20 -12 -20 7 0 9 -5 6 -10 -4 -6 -11 -7 -17 -4 -7 4 -8
2 -4 -5 4 -6 2 -19 -6 -28 -11 -14 -11 -16 2 -8 12 6 13 5 3 -6 -7 -7 -13 -24
-13 -37 0 -13 -4 -21 -9 -18 -5 3 -12 -1 -15 -10 -4 -10 -2 -13 6 -8 8 5 9 2
5 -10 -4 -10 -7 -21 -7 -24 0 -4 -10 -13 -22 -21 l-23 -14 20 23 20 23 -24
-13 c-15 -7 -21 -8 -17 -1 4 6 2 11 -3 11 -6 0 -11 5 -11 11 0 8 4 8 14 0 11
-9 16 -9 22 0 4 7 3 9 -4 5 -6 -3 -21 8 -33 26 -13 17 -18 28 -11 24 7 -4 12
-2 12 3 0 6 -6 11 -14 11 -8 0 -18 5 -22 12 -5 8 -2 9 10 5 13 -5 15 -3 7 12
-6 10 -7 22 -3 26 4 5 1 5 -6 1 -7 -4 -9 -12 -6 -18 4 -6 3 -8 -3 -5 -6 4 -9
19 -7 34 2 25 1 26 -11 10 -11 -16 -13 -16 -19 -2 -3 9 -2 13 4 10 6 -3 10 1
10 10 0 10 -5 13 -12 9 -8 -5 -7 0 2 11 9 11 10 16 3 11 -8 -4 -13 -2 -13 4 0
6 -4 9 -8 6 -10 -6 -9 24 1 40 4 7 -2 10 -18 8 -14 -1 -25 2 -25 7 0 5 8 9 18
9 14 0 15 2 2 9 -8 6 -19 7 -25 3 -5 -3 -4 2 4 11 12 15 11 17 -5 17 -16 0
-17 2 -4 10 13 8 13 10 -2 10 -12 0 -15 7 -13 27 3 25 2 26 -11 8 -11 -15 -14
-16 -14 -3 0 8 -6 21 -13 27 -8 6 -13 24 -12 41 1 23 -1 27 -11 19 -8 -7 -14
-6 -20 2 -4 8 -3 9 4 5 7 -4 12 -2 12 3 0 6 -5 11 -11 11 -5 0 -7 5 -4 10 3 6
1 10 -6 10 -7 0 -10 3 -6 6 10 10 -17 32 -33 26 -9 -3 -8 1 4 10 17 14 17 15
2 21 -12 5 -15 3 -10 -6 5 -9 3 -8 -7 1 -12 11 -12 14 1 22 12 8 10 10 -10 11
-14 0 -19 3 -12 6 17 7 15 20 -3 20 -8 0 -15 -5 -15 -10 0 -6 -3 -7 -6 -4 -4
4 -2 13 5 21 9 11 8 15 -4 19 -9 4 -12 13 -8 24 5 15 3 15 -11 -2 -15 -19 -16
-19 -9 -1 5 14 3 17 -6 11 -10 -6 -11 -3 -2 14 7 12 8 21 4 20 -15 -4 -43 13
-37 22 3 5 0 9 -6 9 -6 0 -8 5 -4 12 5 8 2 9 -9 5 -13 -5 -17 -1 -17 18 0 14
-3 24 -7 24 -20 -3 -34 2 -28 11 3 6 2 10 -3 10 -5 0 -14 12 -21 26 -8 18 -17
24 -28 20 -12 -5 -13 -4 -5 7 12 14 7 27 -10 27 -5 0 -6 -6 -2 -12 4 -7 3 -10
-1 -5 -5 4 -10 17 -12 29 -4 27 -6 29 -31 31 -11 0 -18 6 -16 12 3 6 -7 23
-21 38 -16 15 -24 31 -19 38 5 8 2 10 -8 6 -17 -6 -48 21 -48 40 0 6 6 14 13
17 8 4 7 5 -3 5 -35 -3 -46 2 -55 23 -6 13 -20 28 -32 34 -13 6 -20 14 -16 17
3 4 1 7 -6 7 -7 0 -9 5 -5 13 5 8 2 7 -9 -2 -10 -8 -20 -11 -24 -7 -3 3 -1 6
5 6 15 0 15 27 0 36 -8 5 -9 2 -5 -9 3 -10 2 -17 -3 -17 -6 0 -11 7 -11 15 -4
44 0 41 -51 44 -19 1 -20 3 -8 11 13 8 12 10 -3 10 -12 0 -16 4 -11 13 6 9 4
9 -8 -1 -13 -10 -18 -10 -24 -1 -4 8 -3 9 4 5 17 -10 15 9 -3 24 -8 7 -12 16
-9 21 3 5 -2 6 -11 3 -14 -6 -14 -8 2 -21 16 -13 16 -13 -4 -3 -13 6 -23 17
-23 25 0 7 -5 17 -12 21 -7 5 -8 3 -3 -7 7 -11 6 -12 -7 -2 -8 7 -18 9 -22 5
-4 -4 -6 0 -4 8 2 8 -3 14 -9 13 -7 -2 -13 1 -13 5 0 4 6 14 13 22 6 8 3 7 -9
-3 -22 -18 -41 -12 -24 8 7 8 5 12 -5 12 -8 0 -15 -7 -16 -16 0 -12 -3 -10 -8
4 -5 11 -6 24 -3 29 3 5 0 6 -6 2 -7 -4 -12 -2 -12 5 0 9 -3 9 -14 0 -11 -10
-16 -8 -21 8 -7 23 -30 28 -39 9 -3 -7 -3 -2 0 11 5 19 3 23 -10 18 -10 -4
-19 -1 -22 8 -4 8 -10 12 -15 9 -5 -3 -9 3 -9 13 0 15 -2 16 -10 3 -7 -12 -10
-12 -10 -1 0 7 -6 11 -14 8 -11 -4 -13 -1 -9 10 5 13 3 14 -17 3 -13 -7 -20
-8 -16 -1 4 5 -3 20 -14 31 -16 16 -25 19 -35 10 -10 -8 -15 -8 -21 1 -4 8 -3
9 4 5 8 -5 10 -1 5 9 -3 10 -8 12 -12 6 -8 -13 -38 -8 -54 9 -10 10 -9 11 2 5
10 -6 12 -4 7 4 -5 7 -11 10 -14 7 -3 -3 -11 -1 -19 6 -11 9 -12 7 -7 -7 7
-16 6 -16 -18 -1 -13 9 -28 13 -33 9 -4 -5 -5 -3 -2 3 4 7 -1 18 -10 25 -12
10 -14 10 -9 2 5 -9 1 -13 -10 -13 -10 0 -14 3 -11 7 14 14 -27 31 -52 21 -17
-6 -27 -6 -29 1 -2 6 -8 9 -13 6 -5 -4 -6 1 -2 11 5 14 3 15 -15 5 -26 -14
-32 -14 -32 0 0 5 4 7 10 4 6 -3 7 1 4 10 -6 14 -8 14 -20 -2 -13 -17 -13 -17
-14 2 l-1 20 -9 -20 c-6 -13 -9 -15 -9 -5 -1 13 -2 13 -11 0 -8 -13 -10 -12
-10 3 0 9 -5 17 -11 17 -5 0 -7 -6 -3 -12 6 -10 5 -10 -7 -2 -8 7 -30 14 -50
17 -20 2 -43 8 -50 13 -11 6 -11 5 0 -9 12 -15 12 -17 -3 -11 -9 3 -16 10 -16
15 0 5 -5 9 -11 9 -5 0 -7 -4 -4 -10 3 -5 2 -10 -3 -10 -17 0 -22 13 -9 29 11
14 10 14 -5 2 -10 -7 -15 -17 -12 -22 3 -5 0 -9 -5 -9 -6 0 -11 4 -11 9 0 5
-7 12 -16 15 -13 5 -14 4 -6 -7 9 -10 8 -14 -3 -14 -8 0 -15 5 -15 11 0 6 -5
4 -10 -4 -8 -12 -10 -10 -11 10 l-1 25 -8 -25 c-4 -14 -9 -18 -9 -10 -1 13 -2
13 -11 0 -8 -13 -10 -12 -10 3 0 9 -4 17 -9 17 -5 0 -7 -10 -4 -22 5 -22 5
-22 -9 -4 -10 13 -21 16 -36 12 -12 -4 -20 -12 -17 -17 3 -5 -1 -6 -9 -3 -9 3
-13 11 -10 18 3 6 -6 -2 -21 -19 -14 -16 -24 -25 -21 -18 11 21 -16 27 -32 7
-10 -13 -13 -14 -9 -3 3 9 -1 16 -9 16 -8 0 -13 -6 -10 -13 3 -8 -2 -10 -16
-6 -16 4 -19 2 -13 -9 7 -12 6 -12 -7 -1 -16 13 -48 7 -48 -10 0 -6 6 -6 14 1
10 8 16 9 21 1 4 -6 3 -10 -2 -9 -4 1 -10 0 -13 -1 -16 -6 -48 -5 -44 2 8 12
-32 4 -50 -11 -9 -7 -13 -18 -9 -25 3 -6 3 -8 -2 -4 -4 4 -14 3 -21 -3 -8 -7
-14 -7 -18 0 -8 12 -56 -7 -56 -21 0 -5 11 -2 23 7 20 13 24 13 24 1 0 -8 -6
-12 -13 -9 -6 2 -15 -1 -19 -7 -5 -8 -10 -8 -20 0 -11 9 -12 6 -8 -12 4 -18 3
-20 -6 -8 -10 13 -12 13 -20 0 -5 -8 -7 -18 -4 -24 3 -5 1 -6 -6 -2 -6 4 -8
12 -5 18 5 7 2 8 -5 4 -7 -5 -10 -14 -8 -21 4 -8 -3 -11 -18 -9 -13 1 -30 -5
-37 -14 -12 -16 -11 -16 6 -2 18 14 19 14 5 -7 -8 -13 -16 -18 -20 -12 -4 7
-12 5 -21 -5 -9 -8 -19 -12 -24 -8 -5 4 -2 -1 5 -11 12 -15 12 -17 -4 -11 -12
5 -16 4 -11 -4 3 -6 1 -14 -5 -18 -7 -4 -9 -3 -5 4 3 6 2 13 -4 17 -5 3 -10
-1 -10 -10 0 -10 -5 -13 -12 -9 -7 4 -10 4 -6 -1 4 -4 0 -14 -8 -22 -8 -8 -11
-20 -7 -26 4 -8 1 -7 -9 1 -13 10 -16 10 -14 0 0 -7 -3 -14 -9 -15 -5 0 -9 4
-7 10 2 7 0 8 -5 4 -4 -5 -8 -16 -8 -25 0 -9 -5 -16 -11 -15 -7 1 -10 -6 -7
-17 5 -20 -4 -25 -37 -20 -11 1 -9 -3 5 -15 11 -9 15 -14 8 -11 -6 4 -17 0
-25 -9 -35 -39 -37 -42 -25 -55 9 -10 9 -11 0 -6 -8 5 -13 1 -13 -9 0 -9 -9
-19 -20 -22 -11 -3 -20 -10 -20 -15 0 -6 8 -7 18 -4 10 4 8 -1 -7 -13 -15 -11
-22 -24 -18 -34 4 -11 2 -14 -8 -10 -8 3 -12 10 -8 16 3 6 1 7 -6 3 -6 -4 -9
-11 -6 -16 3 -5 0 -14 -7 -22 -16 -17 -22 -42 -8 -33 5 3 10 1 10 -4 0 -6 -7
-11 -15 -11 -9 0 -12 -6 -8 -17 4 -11 3 -14 -5 -9 -16 10 -15 -7 0 -23 7 -7 9
-12 3 -11 -25 5 -35 -2 -35 -25 0 -14 -6 -25 -12 -25 -9 0 -8 -4 2 -10 12 -7
12 -10 1 -10 -8 0 -11 -6 -7 -16 4 -11 2 -15 -7 -11 -8 3 -13 -3 -14 -14 -1
-12 3 -17 10 -13 7 3 4 -1 -5 -9 -13 -10 -14 -17 -6 -25 9 -9 5 -10 -13 -7
-23 4 -23 4 -4 -10 19 -15 19 -16 0 -33 -14 -12 -16 -13 -7 -1 9 12 9 16 -2
16 -14 0 -16 -14 -3 -34 4 -6 3 -14 -3 -18 -5 -3 -10 -11 -10 -16 0 -6 4 -7
10 -4 6 3 10 4 10 1 0 -3 -12 -13 -27 -21 -16 -9 -20 -14 -11 -11 10 3 20 1
23 -5 4 -5 3 -8 -2 -7 -4 2 -9 -1 -10 -6 -1 -5 -7 -13 -15 -17 -10 -7 -9 -9 5
-9 10 0 15 -5 12 -10 -4 -6 -11 -7 -17 -4 -6 4 -5 -2 1 -15 10 -17 9 -22 -4
-27 -8 -3 -15 -10 -15 -16 0 -5 4 -7 8 -4 5 3 9 -1 9 -9 0 -8 -4 -12 -8 -10
-12 8 -17 -33 -5 -46 6 -7 6 -9 1 -6 -6 3 -17 -4 -25 -16 -12 -20 -11 -21 2
-9 13 10 17 10 21 -2 4 -9 -1 -20 -11 -25 -14 -8 -14 -11 -2 -11 9 0 6 -6 -10
-16 l-25 -15 24 7 c23 6 23 5 8 -16 -14 -21 -13 -54 4 -76 5 -6 3 -11 -6 -11
-8 0 -12 4 -9 9 3 4 -2 5 -11 2 -14 -6 -14 -8 2 -20 10 -7 14 -14 9 -14 -5 0
-3 -7 4 -15 11 -13 10 -14 -4 -9 -9 3 -16 1 -16 -5 0 -6 5 -11 11 -11 8 0 8
-4 -1 -15 -10 -11 -9 -18 4 -30 21 -22 21 -31 -1 -14 -15 13 -15 12 -5 -7 8
-14 8 -24 1 -31 -8 -8 -7 -13 0 -17 14 -9 14 -26 0 -26 -5 0 -7 5 -3 12 4 7 3
8 -4 4 -15 -9 -3 -38 12 -29 6 3 4 -2 -5 -13 -9 -10 -19 -26 -23 -34 -4 -8 0
-6 8 4 9 11 19 17 22 13 4 -4 1 -13 -6 -22 -7 -8 -8 -15 -3 -15 5 0 9 -11 9
-24 0 -14 -3 -23 -7 -20 -4 2 -10 -3 -13 -12 -9 -24 -7 -31 4 -14 8 13 10 12
10 -3 0 -11 4 -15 12 -11 7 4 8 3 4 -5 -4 -6 -12 -8 -18 -5 -6 4 -9 1 -6 -7 3
-8 10 -14 16 -14 5 0 14 -3 18 -7 3 -4 -3 -5 -16 -3 -19 4 -20 2 -8 -12 9 -12
9 -15 1 -9 -19 11 -16 -5 3 -19 15 -10 15 -13 -1 -29 -22 -21 -12 -34 12 -15
15 13 15 12 1 -11 -16 -26 -17 -88 -1 -99 5 -3 9 -23 9 -44 -1 -20 4 -37 9
-37 6 0 3 -5 -5 -10 -10 -6 -11 -10 -2 -10 6 0 12 -4 12 -10 0 -5 -8 -7 -17
-3 -15 5 -14 3 2 -10 11 -8 24 -13 30 -9 5 3 4 -1 -2 -10 -7 -8 -9 -19 -5 -23
4 -5 2 -5 -5 -1 -6 3 -15 1 -19 -5 -4 -8 -3 -9 5 -5 6 4 14 0 17 -8 3 -9 11
-13 18 -9 6 3 6 1 -2 -8 -13 -14 -17 -33 -4 -25 4 2 9 -4 9 -15 1 -10 -2 -19
-8 -19 -5 0 -9 -5 -9 -11 0 -6 7 -8 16 -5 8 3 12 2 9 -3 -3 -5 -1 -12 5 -16 6
-4 8 -11 4 -16 -3 -5 -9 -7 -14 -4 -5 3 -12 0 -16 -6 -4 -8 -3 -9 4 -5 8 4 16
-3 22 -19 13 -33 13 -45 0 -25 -7 12 -9 10 -7 -7 0 -12 5 -19 9 -17 4 3 8 -4
8 -15 0 -12 6 -21 13 -21 8 0 7 -3 -3 -10 -12 -8 -12 -10 3 -15 13 -6 14 -11
6 -26 -6 -12 -6 -19 0 -19 5 0 12 6 14 13 3 6 6 7 6 1 1 -5 -9 -21 -21 -34
-17 -18 -18 -22 -5 -17 20 8 45 -28 24 -36 -6 -3 -4 -6 7 -6 15 -1 16 -4 7
-15 -14 -17 2 -31 21 -20 7 4 5 -2 -4 -13 -10 -11 -18 -24 -18 -29 0 -5 5 -2
11 6 9 12 10 11 6 -7 -4 -17 -1 -23 11 -23 15 0 15 -2 2 -10 -13 -8 -8 -14 11
-12 3 1 6 -5 6 -13 0 -8 -5 -11 -10 -8 -5 3 -7 0 -5 -8 3 -8 11 -13 17 -11 7
1 10 -2 6 -7 -3 -6 2 -22 11 -36 15 -23 15 -25 0 -19 -9 3 -13 11 -9 18 3 6 2
7 -2 3 -11 -9 -16 -37 -7 -36 22 3 31 -3 25 -18 -5 -12 -3 -14 8 -8 11 7 11 5
-1 -10 -9 -11 -10 -16 -2 -11 7 4 12 2 12 -4 0 -6 5 -8 11 -4 8 5 8 1 0 -14
-14 -26 -14 -35 0 -26 8 4 9 0 4 -15 -4 -14 -2 -23 8 -26 7 -3 14 -11 14 -18
0 -7 4 -21 9 -31 5 -14 4 -17 -5 -11 -10 6 -11 3 -2 -13 7 -13 17 -19 26 -16
8 4 15 1 15 -5 0 -6 -7 -11 -15 -11 -8 0 -15 -4 -15 -10 0 -5 7 -7 16 -3 14 5
16 1 12 -20 -3 -14 -2 -26 1 -25 3 0 13 0 21 -1 13 -1 13 -2 0 -11 -13 -8 -13
-10 1 -10 9 0 16 -7 16 -15 0 -11 -4 -12 -14 -3 -11 8 -12 7 -7 -6 3 -9 13
-16 21 -16 12 0 13 -3 4 -13 -11 -14 -5 -27 13 -27 6 0 4 5 -4 10 -12 7 -10 9
7 8 19 -2 20 -4 6 -25 -9 -13 -13 -26 -9 -30 3 -3 6 -1 6 5 0 7 4 12 9 12 5 0
9 -6 8 -12 -1 -34 5 -46 23 -51 25 -6 26 -24 3 -30 -17 -4 -17 -5 0 -6 9 0 17
-6 17 -12 0 -5 6 -7 13 -3 8 5 8 2 -2 -9 -10 -13 -10 -17 -1 -17 10 0 10 -3 1
-14 -10 -12 -8 -13 11 -8 20 5 21 4 10 -11 -12 -14 -11 -16 5 -13 15 3 19 -2
19 -22 0 -15 -4 -30 -10 -34 -8 -5 -7 -8 1 -8 7 0 17 8 23 18 8 13 10 13 9 2
-3 -31 1 -41 14 -34 9 6 10 4 0 -7 -20 -20 -15 -31 10 -24 14 4 18 3 9 -3 -16
-11 -5 -42 14 -42 8 0 14 -5 14 -11 0 -5 -5 -7 -11 -3 -6 3 -4 -5 5 -18 9 -14
13 -29 9 -33 -5 -5 0 -3 10 4 15 12 17 12 11 -3 -3 -9 -1 -16 5 -16 6 0 10 -3
10 -7 -3 -21 2 -33 13 -27 6 4 8 3 4 -4 -3 -6 0 -14 8 -19 8 -4 16 -12 18 -18
2 -5 8 -9 15 -9 6 1 9 -4 6 -12 -2 -7 -11 -10 -19 -7 -8 3 -14 0 -14 -6 0 -6
3 -10 8 -10 21 4 42 -2 42 -12 0 -5 -5 -7 -11 -3 -8 4 -8 1 -1 -12 20 -35 59
-74 68 -66 4 4 2 -2 -6 -13 -8 -11 -10 -17 -5 -12 4 4 19 -3 32 -15 19 -17 21
-24 10 -37 -9 -11 -9 -13 0 -8 14 9 36 -26 25 -38 -4 -5 -1 -5 6 -1 7 4 10 12
7 17 -4 5 -4 9 -1 9 3 0 10 -10 17 -21 7 -13 7 -19 1 -15 -6 3 -14 1 -18 -5
-4 -8 -3 -9 4 -5 7 4 12 2 12 -4 0 -6 5 -8 10 -5 6 3 10 1 10 -5 0 -6 5 -8 13
-4 8 5 8 2 -2 -9 -12 -15 -11 -17 3 -17 9 0 16 5 16 12 0 6 3 8 6 5 4 -4 2
-13 -5 -21 -9 -11 -8 -15 6 -21 10 -5 25 -7 33 -6 9 1 11 -1 5 -6 -5 -4 -12
-17 -13 -27 -3 -17 -1 -18 11 -7 18 14 25 5 22 -26 -2 -25 10 -31 18 -10 3 6
6 2 6 -10 1 -14 7 -23 17 -23 12 0 15 -6 11 -21 -5 -20 -5 -20 15 -2 14 12 18
13 13 3 -16 -26 -14 -39 6 -45 11 -4 17 -10 14 -15 -3 -5 0 -12 6 -16 8 -4 9
-3 5 4 -4 7 -2 12 3 12 6 0 11 -5 11 -11 0 -5 4 -8 9 -5 11 7 9 -12 -3 -34 -4
-8 2 -4 13 9 l21 23 -2 -23 c-2 -15 2 -23 10 -21 6 1 12 -5 12 -14 0 -10 5
-14 16 -10 8 3 12 2 9 -4 -3 -6 -1 -10 5 -10 6 0 9 -4 6 -9 -3 -4 1 -17 9 -27
15 -19 15 -18 9 1 -3 12 1 8 11 -8 12 -21 21 -27 38 -22 19 5 19 4 -3 -9 l-25
-14 28 -7 c15 -4 27 -11 27 -16 0 -5 6 -9 14 -9 7 0 20 -8 27 -17 13 -16 12
-17 -3 -4 -30 23 -20 4 15 -29 21 -20 39 -29 54 -27 12 2 20 0 17 -4 -3 -5 5
-19 17 -31 12 -13 18 -17 14 -9 -6 10 -4 12 4 7 7 -5 10 -14 7 -21 -6 -18 14
-33 41 -30 12 1 24 -4 27 -11 3 -8 -1 -11 -12 -8 -9 2 4 -6 30 -19 26 -13 45
-27 41 -30 -3 -4 -1 -7 6 -7 7 0 9 -5 5 -12 -6 -10 -4 -10 8 0 13 10 17 10 22
-4 4 -9 9 -14 13 -10 3 3 15 -2 26 -11 10 -10 22 -18 26 -18 3 0 5 -6 5 -13
-2 -10 1 -10 14 0 9 7 13 8 10 3 -4 -6 -3 -17 3 -25 7 -13 9 -13 9 0 1 12 2
12 10 -2 6 -10 19 -15 30 -13 11 2 18 0 15 -6 -4 -5 -1 -9 5 -9 6 0 8 -5 4
-12 -5 -8 -2 -9 9 -5 12 4 17 1 17 -11 0 -15 2 -15 10 -2 8 13 10 12 10 -3 0
-15 3 -16 23 -6 19 11 20 10 10 -3 -16 -19 -6 -30 16 -18 25 13 26 -32 1 -48
-16 -10 -20 -10 -21 0 0 7 -4 3 -9 -9 -7 -16 -14 -21 -26 -16 -12 5 -15 3 -9
-6 6 -10 3 -11 -11 -3 -14 7 -24 6 -37 -3 -13 -9 -14 -14 -6 -17 9 -3 7 -6 -4
-11 -9 -3 -17 -2 -17 3 0 5 -7 7 -15 4 -8 -4 -15 -10 -15 -16 0 -5 5 -6 12 -2
6 4 8 3 4 -4 -4 -7 -17 -8 -36 -2 -28 8 -29 7 -19 -12 9 -16 8 -19 -3 -12 -7
5 -19 9 -26 10 -10 2 -11 -1 -1 -12 10 -12 7 -14 -12 -12 -15 2 -23 -2 -21 -9
2 -13 -4 -15 -45 -16 -14 0 -19 -5 -16 -13 3 -8 0 -14 -6 -14 -6 0 -11 6 -11
13 0 8 -3 9 -8 1 -15 -23 -48 -34 -63 -21 -7 7 -5 2 6 -11 15 -18 16 -22 3
-17 -9 4 -19 1 -24 -6 -5 -8 -3 -10 6 -4 9 5 11 4 6 -4 -6 -9 -11 -9 -22 0
-12 10 -16 8 -21 -10 -4 -17 -8 -19 -14 -9 -7 11 -9 11 -9 -1 0 -8 -6 -11 -16
-7 -8 3 -12 2 -9 -3 3 -5 1 -12 -5 -16 -6 -4 -7 -11 -4 -17 4 -7 2 -8 -4 -4
-6 4 -9 14 -6 24 5 15 4 15 -6 -1 -6 -9 -15 -15 -21 -12 -5 4 -9 -1 -9 -10 0
-8 -8 -19 -17 -22 -10 -4 -24 -15 -31 -25 -10 -14 -17 -16 -26 -9 -17 14 -29
1 -14 -16 8 -11 7 -12 -6 -7 -9 3 -16 1 -16 -6 0 -6 -5 -8 -11 -4 -7 4 -19 -3
-28 -15 -9 -12 -26 -23 -38 -24 -12 0 -20 -4 -17 -8 2 -4 -5 -11 -17 -14 -12
-4 -18 -13 -15 -20 3 -9 -2 -12 -15 -10 -10 2 -19 -1 -19 -6 0 -6 -6 -7 -12
-3 -10 6 -10 5 -1 -7 10 -12 8 -15 -8 -16 -13 -1 -17 2 -12 10 5 9 2 8 -9 0
-8 -7 -18 -11 -22 -8 -3 3 -2 -1 4 -7 15 -18 12 -31 -6 -24 -8 3 -13 2 -10 -3
3 -5 -2 -15 -11 -22 -14 -12 -16 -12 -8 1 6 11 3 10 -12 -3 -11 -9 -22 -14
-25 -11 -3 3 -5 -3 -5 -13 1 -10 -4 -17 -11 -15 -8 1 -16 -6 -19 -17 -3 -11
-11 -17 -18 -15 -7 3 -16 0 -21 -7 -5 -8 -3 -10 6 -4 9 5 11 4 6 -3 -4 -7 -14
-12 -22 -12 -8 0 -14 -6 -14 -12 0 -9 -4 -8 -10 2 -5 8 -10 10 -10 5 0 -6 6
-17 13 -24 10 -11 9 -13 -6 -7 -14 4 -20 0 -24 -15 -4 -16 -8 -17 -14 -7 -7
10 -9 10 -10 1 -4 -34 -6 -38 -17 -35 -7 1 -12 -3 -12 -9 0 -5 -4 -8 -9 -5
-11 7 -23 -22 -15 -36 4 -6 -2 -5 -15 1 -17 10 -20 9 -14 -4 4 -11 -1 -18 -17
-22 -13 -4 -17 -8 -10 -13 7 -5 6 -11 -6 -21 -13 -10 -16 -11 -10 -1 7 11 4
11 -13 1 -14 -10 -17 -15 -8 -21 9 -6 8 -8 -3 -9 -8 -1 -18 -1 -22 0 -4 0 -5
-8 -3 -19 3 -13 -1 -17 -11 -13 -17 6 -18 -8 -1 -27 6 -8 2 -6 -11 5 -18 15
-22 15 -17 3 4 -9 0 -18 -10 -22 -10 -3 -15 -13 -12 -20 4 -10 0 -13 -14 -11
-17 4 -19 2 -8 -11 10 -12 9 -13 -3 -9 -18 7 -52 -40 -45 -60 4 -9 -1 -11 -16
-8 -18 4 -19 3 -7 -6 14 -10 7 -16 -13 -12 -5 1 -6 -3 -3 -8 4 -5 2 -12 -4
-16 -6 -4 -7 -12 -3 -18 4 -7 -2 -5 -12 3 -17 14 -18 14 -6 -7 10 -19 9 -22
-3 -17 -11 4 -14 0 -11 -13 2 -11 -1 -26 -7 -34 -8 -11 -9 -11 -4 3 3 10 1 20
-4 23 -6 4 -10 -5 -10 -19 0 -14 -4 -26 -10 -26 -5 0 -7 8 -4 18 5 14 4 14 -4
2 -8 -10 -7 -19 1 -29 8 -10 8 -13 1 -8 -7 4 -14 -3 -18 -18 -4 -15 -14 -25
-24 -25 -15 0 -15 -2 -2 -10 13 -8 13 -10 -2 -10 -9 0 -20 -5 -24 -12 -4 -6
-3 -8 2 -5 6 3 10 -4 11 -16 0 -12 -1 -16 -4 -9 -5 13 -24 17 -21 5 3 -17 -15
-42 -26 -36 -6 4 -5 -1 3 -11 8 -9 10 -16 5 -15 -27 5 -35 -1 -24 -21 8 -16 8
-20 -4 -20 -9 0 -20 -9 -26 -20 -9 -16 -8 -18 5 -14 8 4 15 1 15 -5 0 -6 -3
-10 -7 -10 -27 4 -35 -1 -23 -16 11 -13 10 -14 -5 -8 -15 5 -17 3 -12 -11 4
-10 1 -19 -9 -23 -8 -3 -13 -11 -10 -18 3 -8 -4 -11 -19 -10 -19 3 -22 -1 -17
-19 5 -19 4 -20 -11 -7 -15 12 -17 12 -11 -2 6 -17 -28 -42 -41 -29 -4 4 -5
-2 -3 -13 2 -15 -2 -20 -19 -19 -19 1 -21 -2 -12 -17 5 -11 6 -19 2 -18 -21 4
-33 -2 -27 -13 5 -8 2 -9 -10 -5 -14 5 -17 3 -12 -8 3 -8 1 -15 -5 -15 -6 0
-7 -4 -4 -10 4 -6 -1 -7 -11 -3 -13 5 -15 3 -9 -7 6 -10 4 -12 -8 -7 -11 4
-15 1 -12 -13 2 -11 -1 -23 -7 -26 -7 -4 -8 -2 -4 4 4 7 2 12 -3 12 -6 0 -12
-7 -12 -15 -3 -30 -4 -34 -15 -45 -9 -9 -14 -9 -19 1 -6 8 -4 10 5 4 9 -5 11
-4 6 4 -12 19 -24 3 -18 -25 4 -21 2 -25 -8 -19 -10 6 -12 4 -7 -8 4 -11 2
-14 -9 -10 -8 3 -14 2 -13 -3 4 -21 -2 -28 -11 -14 -8 12 -10 11 -7 -5 1 -11
6 -26 11 -33 4 -7 4 -12 -1 -11 -4 1 -16 -1 -26 -6 -15 -6 -15 -10 -5 -23 10
-12 10 -14 0 -8 -7 4 -12 1 -12 -8 0 -10 -6 -13 -17 -9 -15 6 -16 4 -5 -9 10
-13 9 -16 -8 -21 -14 -4 -18 -10 -13 -23 5 -12 3 -15 -6 -9 -10 6 -11 3 -1
-15 6 -12 9 -24 6 -28 -3 -3 -6 0 -6 6 0 7 -5 12 -11 12 -5 0 -7 -4 -4 -10 3
-5 2 -10 -4 -10 -6 0 -7 -7 -4 -17 4 -11 3 -14 -5 -9 -7 4 -12 3 -12 -3 0 -5
6 -12 13 -14 6 -3 3 -6 -7 -6 -11 -1 -16 -4 -13 -8 4 -3 -1 -12 -11 -19 -15
-12 -14 -12 8 -8 l25 5 -23 -13 c-18 -11 -20 -16 -10 -26 11 -11 10 -12 -5 -6
-19 7 -21 -15 -2 -28 6 -5 3 -8 -7 -8 -12 0 -16 -6 -13 -20 2 -11 0 -18 -6
-15 -5 4 -9 -10 -9 -30 0 -20 -4 -34 -9 -30 -5 3 -13 0 -17 -6 -4 -7 -3 -9 4
-5 6 3 13 2 17 -4 3 -5 -1 -10 -9 -10 -10 0 -13 -6 -9 -17 4 -10 2 -14 -4 -10
-5 3 -10 0 -10 -8 0 -8 5 -11 10 -8 6 4 8 -1 4 -11 -4 -10 -7 -20 -7 -22 0 -2
-5 -4 -11 -4 -5 0 -7 4 -4 10 3 6 1 10 -5 10 -6 0 -10 -6 -9 -12 4 -32 -1 -37
-32 -31 -21 4 -34 1 -40 -8 -7 -11 -9 -11 -9 -1 0 10 -3 10 -14 0 -8 -7 -11
-17 -8 -23 3 -5 -1 -5 -9 1 -15 12 -47 13 -66 1 -6 -4 -14 -3 -18 2 -3 6 -12
8 -20 5 -8 -4 -12 -10 -9 -15 3 -5 -1 -7 -8 -5 -7 3 -26 7 -43 11 -26 6 -28 5
-12 -7 16 -12 15 -13 -8 -14 -16 -1 -22 2 -18 10 4 6 -1 5 -11 -3 -15 -13 -19
-13 -27 0 -7 11 -9 10 -10 -6 -1 -11 -1 -24 0 -28 1 -5 -3 -5 -9 -2 -6 4 -9
13 -6 21 8 20 0 17 -25 -8 -12 -13 -18 -17 -14 -9 6 10 2 11 -16 6 -57 -18
-55 -18 -39 -6 9 7 11 11 3 11 -7 0 -17 -8 -22 -17 -6 -11 -11 -13 -11 -5 0 7
-4 11 -9 8 -5 -4 -11 -1 -13 5 -2 7 -10 4 -18 -7 -8 -10 -10 -15 -3 -11 6 4
15 2 19 -4 4 -8 3 -9 -4 -5 -7 4 -12 1 -12 -6 -1 -7 -7 -2 -15 12 -11 20 -14
21 -15 7 0 -10 -5 -15 -10 -12 -6 4 -7 12 -3 18 5 8 2 8 -9 0 -8 -7 -18 -9
-22 -5 -4 4 -7 3 -6 -3 5 -22 -1 -27 -17 -14 -11 10 -14 10 -9 2 5 -9 0 -13
-16 -13 -13 0 -30 -6 -37 -12 -11 -11 -13 -10 -8 4 3 10 2 20 -4 23 -5 4 -9 3
-8 -2 1 -4 1 -15 0 -23 -1 -12 -5 -11 -18 5 -14 18 -15 18 -9 1 4 -13 2 -17
-8 -13 -8 3 -17 3 -20 -1 -12 -11 -36 -10 -30 1 3 7 -2 3 -11 -8 -19 -24 -18
-24 -46 0 -13 11 -18 13 -11 5 17 -19 15 -35 -2 -21 -11 10 -15 8 -19 -6 -4
-14 -5 -13 -6 5 0 12 -5 22 -11 22 -5 0 -7 -7 -4 -15 5 -11 2 -13 -10 -9 -12
5 -15 2 -10 -12 5 -15 4 -16 -4 -5 -13 18 -52 22 -45 5 2 -6 -1 -15 -7 -19 -6
-3 -10 -3 -9 2 4 22 -3 24 -27 8 -15 -9 -29 -13 -33 -8 -3 5 -16 9 -28 9 -18
0 -20 -3 -10 -16 6 -8 7 -12 3 -8 -5 4 -16 2 -24 -5 -10 -8 -13 -8 -9 -1 4 7
0 15 -9 18 -24 9 -31 7 -14 -4 12 -8 11 -10 -5 -10 -12 0 -26 -5 -32 -11 -7
-7 -15 -5 -27 6 -9 9 -16 11 -16 5 0 -6 -4 -8 -10 -5 -6 4 -7 -1 -3 -12 3 -10
2 -15 -2 -10 -5 4 -18 1 -30 -7 -18 -12 -22 -12 -22 -1 0 8 3 12 7 10 3 -2 12
1 20 6 11 7 9 8 -8 6 -13 -2 -27 -9 -32 -17 -6 -10 -9 -8 -13 6 -4 16 -5 17
-6 2 0 -10 -6 -18 -12 -18 -5 0 -7 4 -4 10 12 19 -7 10 -25 -12 l-19 -23 5 25
c2 14 2 19 -2 12 -3 -6 -10 -10 -15 -7 -5 4 -6 -1 -3 -9 7 -19 0 -20 -26 -6
-13 7 -21 7 -26 -2 -5 -7 -3 -8 7 -3 8 5 10 4 6 0 -13 -15 -37 -14 -37 1 0 9
-5 12 -10 9 -6 -4 -8 -10 -5 -15 3 -5 0 -12 -6 -16 -7 -4 -9 -3 -6 3 4 6 1 13
-7 16 -10 4 -12 -1 -9 -16 4 -18 3 -19 -7 -7 -9 12 -13 12 -17 2 -4 -10 -8 -9
-19 5 -12 17 -13 16 -9 -7 4 -22 3 -23 -8 -8 -12 15 -14 15 -25 0 -10 -15 -11
-15 -6 3 5 17 3 17 -16 -5 l-23 -25 7 25 c7 24 6 24 -8 6 -13 -17 -18 -17 -33
-5 -16 13 -17 12 -4 -3 15 -19 2 -25 -16 -7 -8 8 -13 7 -18 -2 -6 -8 -4 -10 5
-4 9 5 11 4 6 -3 -11 -18 -26 -14 -27 6 0 13 -2 13 -9 -4 -11 -27 -27 -38 -27
-19 0 8 5 11 10 8 6 -4 7 -1 2 7 -6 10 -11 9 -22 -5 -7 -11 -13 -13 -13 -6 0
7 -5 9 -10 6 -6 -4 -8 -10 -5 -14 2 -5 -11 -7 -31 -6 -23 1 -38 -4 -44 -14 -7
-11 -9 -12 -10 -3 0 7 -4 10 -10 7 -5 -3 -10 0 -10 7 0 10 -2 10 -9 -1 -5 -8
-14 -10 -22 -6 -9 6 -11 3 -6 -8 8 -21 3 -21 -17 -1 -14 13 -16 14 -16 0 0 -9
-8 -14 -20 -13 -14 1 -19 6 -15 17 4 11 1 10 -9 -2 -7 -10 -19 -18 -25 -18 -7
0 -9 -5 -5 -12 4 -7 3 -8 -5 -4 -6 4 -19 2 -27 -5 -8 -7 -14 -8 -12 -3 2 5 -1
9 -7 9 -5 0 -9 -3 -8 -6 1 -3 -8 -4 -21 -2 -13 3 -30 -2 -38 -11 -15 -14 -17
-14 -23 2 -7 15 -8 15 -15 -3 -6 -15 -9 -16 -9 -4 -1 9 -8 16 -16 16 -11 0
-12 -4 -4 -13 7 -8 6 -14 -2 -20 -8 -4 -9 -3 -5 5 5 8 -2 11 -24 9 -20 -1 -29
-7 -26 -15 3 -7 1 -15 -5 -18 -5 -4 -9 -3 -8 2 1 4 1 15 0 23 -1 13 -2 13 -11
0 -7 -11 -10 -11 -10 -2 0 7 -5 10 -10 7 -6 -4 -7 -11 -4 -17 4 -7 2 -8 -5 -4
-7 5 -23 9 -37 11 -18 2 -22 -1 -14 -10 7 -8 5 -12 -5 -12 -8 0 -15 5 -15 11
0 6 -4 4 -9 -4 -6 -8 -7 -18 -4 -24 3 -5 1 -6 -5 -2 -6 4 -8 14 -5 22 3 9 -7
4 -22 -10 -15 -14 -32 -26 -38 -26 -5 0 1 9 14 20 l24 20 -30 -12 c-16 -7 -36
-20 -43 -28 -8 -8 -11 -9 -7 -3 3 7 1 13 -5 13 -6 0 -8 5 -4 12 4 7 3 8 -5 4
-6 -4 -9 -11 -6 -16 3 -4 -2 -11 -11 -14 -9 -4 -13 -2 -8 5 4 8 0 7 -15 0 -11
-7 -21 -8 -21 -4 0 4 -5 0 -11 -11 -9 -15 -13 -16 -20 -5 -7 11 -9 11 -9 1 0
-8 -5 -10 -12 -6 -9 5 -9 3 1 -9 12 -15 10 -18 -10 -26 -21 -9 -22 -10 -4 -11
19 -1 19 -1 3 -14 -18 -14 -24 -27 -10 -25 26 4 32 -2 22 -21 -6 -12 -7 -19
-1 -18 5 2 17 -6 26 -17 15 -17 15 -16 0 10 -18 30 -18 30 2 12 11 -9 23 -14
28 -10 4 5 5 0 2 -10 -4 -11 -3 -16 4 -12 5 4 18 1 27 -6 16 -13 16 -12 0 6
-16 19 -16 20 13 20 20 1 28 -3 25 -12 -3 -7 -1 -13 4 -13 6 0 10 5 10 10 0 6
4 10 10 10 5 0 8 -6 6 -12 -1 -7 -1 -10 1 -7 2 4 22 5 44 3 25 -3 38 0 34 6
-3 6 1 7 9 4 9 -3 14 -10 11 -14 -5 -9 53 -5 62 4 3 3 12 -2 20 -12 8 -9 12
-12 9 -5 -4 6 -2 14 4 18 5 3 10 1 10 -4 0 -6 3 -10 7 -10 30 5 63 -2 57 -13
-4 -7 -3 -8 4 -4 7 4 12 15 12 24 0 14 2 15 9 2 6 -8 7 -19 4 -25 -3 -5 0 -4
8 3 14 13 43 17 35 4 -2 -4 6 -8 20 -8 27 0 30 6 11 25 -7 8 -1 7 17 -3 16 -8
33 -21 38 -28 7 -10 9 -9 4 4 -4 13 -1 15 11 11 12 -5 14 -3 8 7 -5 9 -4 11 4
6 9 -6 9 -11 -1 -24 -11 -13 -11 -14 1 -8 8 5 17 3 22 -5 6 -10 9 -11 9 -1 0
6 12 12 26 12 14 0 23 -4 20 -8 -6 -11 75 -9 93 2 10 7 12 6 6 -4 -6 -10 -4
-12 8 -7 9 3 19 2 22 -3 4 -6 19 -3 38 7 29 14 31 15 19 0 -12 -14 -11 -15 17
-7 26 7 31 6 32 -8 0 -11 2 -12 6 -4 2 6 11 12 19 12 9 0 13 -4 10 -9 -7 -10
13 -9 30 2 7 4 18 0 25 -9 12 -14 14 -14 26 2 7 10 13 14 13 8 0 -5 9 -15 21
-22 12 -8 18 -9 15 -4 -3 5 1 15 8 21 11 9 16 9 22 0 4 -8 3 -9 -4 -5 -8 5
-10 1 -5 -9 5 -13 7 -14 14 -3 5 7 9 9 9 4 0 -5 9 -1 19 8 14 13 21 14 27 5 5
-8 3 -10 -7 -4 -12 7 -12 5 -1 -6 11 -12 14 -12 22 1 8 13 14 8 12 -11 0 -3
10 -5 23 -5 13 0 21 4 19 8 -3 4 0 8 5 8 6 0 11 -5 11 -12 0 -9 3 -9 12 0 7 7
17 12 23 12 5 0 3 -5 -5 -10 -12 -8 -9 -10 12 -10 14 0 29 6 31 13 3 6 6 3 7
-8 1 -19 1 -19 11 -2 10 18 12 18 30 1 10 -9 19 -13 19 -8 0 5 18 9 39 9 22 1
37 -3 35 -7 -3 -5 -11 -5 -17 -2 -7 4 -8 3 -4 -2 5 -5 12 -9 15 -9 4 0 13 -4
19 -8 9 -5 11 -3 7 6 -7 19 12 32 22 16 5 -8 3 -9 -7 -4 -8 5 -10 4 -6 0 10
-12 38 -15 31 -4 -3 5 0 9 5 9 6 0 11 -8 11 -17 0 -15 2 -16 9 -3 6 8 7 18 4
24 -4 5 -1 6 6 2 7 -5 10 -13 8 -20 -3 -6 6 -11 19 -11 13 0 24 4 24 8 0 5 5
5 10 2 6 -4 8 -11 5 -16 -3 -5 1 -6 9 -3 9 3 13 11 10 16 -4 6 0 7 12 1 11 -5
31 -8 46 -7 15 0 25 -2 23 -6 -2 -4 2 -7 10 -7 8 0 12 4 10 8 -3 4 6 6 20 5
14 0 25 -5 25 -11 0 -5 5 -3 10 5 8 13 10 12 10 -4 0 -20 0 -20 16 0 8 10 13
13 9 7 -8 -16 0 -16 28 -1 21 11 21 10 7 -8 -8 -10 -10 -16 -6 -12 5 4 15 3
23 -4 11 -9 12 -7 7 7 -5 13 -4 16 4 11 7 -4 12 -2 12 5 0 7 7 4 15 -7 11 -15
15 -16 16 -4 0 8 5 4 9 -10 7 -21 8 -22 9 -5 1 17 3 17 11 5 9 -13 10 -13 10
0 0 13 1 13 10 0 9 -13 11 -13 20 0 9 13 10 13 10 0 0 -12 2 -13 9 -1 7 11 11
10 20 -5 10 -18 10 -18 11 1 1 18 2 17 15 -5 8 -14 14 -20 15 -13 0 7 10 18
23 24 20 11 21 11 8 -5 -12 -15 -12 -16 5 -10 10 4 25 12 32 17 7 6 12 6 11 1
-4 -21 2 -24 24 -13 19 11 21 10 9 -3 -11 -14 -9 -16 12 -14 13 0 22 4 19 8
-2 5 1 8 6 8 6 0 11 -5 11 -10 0 -6 15 -9 33 -8 22 2 31 -1 29 -10 -1 -8 2
-11 8 -7 5 3 10 14 10 23 0 14 2 15 9 2 6 -8 7 -18 5 -22 -3 -4 -3 -8 1 -8 3
0 10 10 15 23 9 22 9 22 10 -3 l1 -25 14 25 c8 14 14 19 15 12 0 -7 4 -11 9
-7 5 3 13 0 17 -6 5 -8 3 -9 -6 -4 -9 5 -11 4 -6 -4 4 -6 13 -8 19 -4 17 10
37 13 37 4 0 -4 10 -7 21 -8 21 -2 21 -1 3 13 -18 14 -18 15 2 5 12 -6 25 -7
29 -3 5 4 6 0 3 -9 -4 -10 -1 -16 8 -16 9 0 13 6 9 15 -5 13 -3 13 11 1 9 -7
25 -14 36 -16 18 -3 19 -1 7 13 -13 16 -12 16 8 4 12 -8 19 -19 16 -25 -3 -5
0 -4 8 2 15 15 33 18 25 5 -3 -5 1 -9 9 -9 8 0 12 4 10 8 -3 4 3 6 12 4 10 -1
24 2 31 8 9 7 11 6 6 -7 -6 -15 5 -21 29 -17 5 1 6 -3 3 -8 -4 -5 -2 -13 4
-16 8 -5 7 -12 -2 -23 -10 -12 -10 -14 0 -8 7 4 12 1 12 -9 0 -9 5 -13 11 -9
7 4 7 -1 -1 -16 -10 -18 -9 -21 1 -15 9 6 11 3 6 -8 -4 -12 -2 -14 11 -10 15
6 16 5 2 -12 -12 -15 -12 -17 -1 -10 11 6 13 3 8 -14 -4 -17 -3 -20 8 -11 9 8
14 6 19 -5 4 -11 2 -14 -7 -9 -6 4 -2 -3 11 -15 25 -24 30 -40 7 -21 -13 11
-14 10 -9 -4 3 -9 15 -16 26 -16 17 0 18 -2 8 -15 -11 -13 -10 -14 5 -9 12 5
16 4 11 -4 -3 -6 -2 -13 4 -17 6 -4 8 -9 6 -13 -2 -4 2 -16 10 -27 8 -10 14
-14 14 -9 0 6 -5 15 -11 21 -8 8 -7 13 3 18 7 5 10 5 6 0 -4 -4 -3 -14 3 -21
6 -8 9 -20 6 -28 -4 -10 -1 -13 9 -9 8 3 14 -1 14 -9 0 -15 40 -44 54 -40 5 2
4 -3 -2 -10 -7 -10 -8 -18 0 -28 8 -13 9 -13 5 1 -3 9 1 16 8 16 7 0 11 -7 8
-14 -3 -8 2 -22 11 -32 9 -10 14 -20 11 -23 -3 -2 2 -5 10 -5 12 0 11 5 -5 22
-11 12 -20 25 -20 29 0 5 9 -3 21 -18 11 -14 25 -23 31 -20 7 4 8 2 4 -4 -4
-6 -2 -21 4 -32 8 -16 15 -19 24 -11 14 11 26 5 26 -13 0 -6 -4 -5 -9 2 -7 11
-9 11 -14 -1 -4 -11 2 -14 24 -12 26 2 28 1 17 -13 -10 -12 -10 -14 -1 -9 7 5
21 -3 35 -18 21 -24 56 -36 43 -14 -4 6 2 5 14 -3 12 -7 24 -21 27 -32 5 -15
8 -16 15 -5 5 8 9 9 9 3 0 -7 11 -15 25 -18 14 -4 25 -13 25 -22 0 -8 5 -12
10 -9 6 4 8 11 5 16 -4 5 5 4 19 -3 14 -6 26 -18 26 -26 0 -12 2 -12 17 -1 11
10 14 10 9 2 -5 -9 1 -13 19 -13 18 0 24 -4 19 -13 -5 -7 0 -6 11 3 10 8 16
10 12 4 -4 -7 0 -14 8 -17 10 -4 12 -1 8 10 -5 11 0 10 15 -5 12 -12 27 -22
33 -22 8 0 7 -6 -2 -17 -10 -11 -10 -14 -1 -9 7 4 12 2 12 -5 0 -8 4 -8 15 1
13 11 14 10 8 -6 -3 -10 -11 -22 -16 -25 -5 -3 -1 -9 8 -12 9 -4 13 -3 10 3
-3 6 -2 10 3 10 5 0 12 -13 16 -30 3 -18 12 -30 21 -30 8 0 15 -9 15 -21 0
-11 4 -17 10 -14 6 3 10 0 10 -8 0 -8 7 -17 15 -21 9 -3 12 -12 8 -23 -6 -15
-4 -16 9 -5 13 10 17 10 22 -3 3 -9 2 -13 -4 -10 -6 3 -10 1 -10 -4 0 -6 8
-11 17 -11 9 0 14 -3 10 -6 -7 -8 17 -34 32 -34 17 0 24 -22 10 -32 -11 -7 -9
-8 6 -6 15 2 20 -3 19 -18 0 -16 4 -20 18 -16 10 2 18 1 17 -4 -4 -25 4 -36
11 -14 l8 25 1 -28 c1 -15 4 -26 9 -25 13 2 42 -14 42 -24 0 -5 -5 -6 -12 -2
-7 4 -8 3 -4 -5 4 -6 10 -10 14 -8 10 5 42 -30 34 -38 -4 -3 1 -3 11 1 10 3
17 1 17 -6 0 -6 5 -8 13 -4 9 6 9 4 -1 -8 -11 -14 -10 -16 5 -14 10 2 25 -5
34 -15 9 -10 19 -15 23 -11 4 4 7 2 6 -3 -4 -19 0 -38 6 -32 4 3 13 -1 21 -9
9 -8 21 -13 28 -10 9 3 12 -3 11 -18 -2 -13 3 -23 10 -23 7 0 11 5 8 11 -3 6
1 2 10 -8 8 -10 13 -22 11 -26 -2 -4 2 -7 10 -7 11 0 12 4 3 14 -8 11 -7 12 6
7 9 -3 16 -16 16 -28 0 -17 2 -18 10 -6 8 12 10 10 10 -10 0 -18 3 -21 9 -11
7 11 10 9 15 -7 4 -13 13 -19 22 -15 8 3 14 -1 14 -11 0 -9 4 -16 10 -16 5 0
7 8 4 18 -4 9 3 4 14 -11 11 -16 22 -28 26 -28 24 3 27 0 15 -16 -10 -12 -10
-15 -1 -9 7 4 19 0 28 -8 9 -9 20 -14 25 -11 5 4 9 0 9 -7 0 -11 2 -10 9 0 6
11 10 10 15 -3 4 -10 12 -15 22 -11 8 3 12 2 9 -4 -3 -6 0 -10 8 -10 8 0 20
-7 27 -15 7 -8 16 -13 20 -10 5 3 11 1 15 -5 4 -6 11 -8 16 -5 5 3 6 -2 2 -11
-5 -14 -2 -16 15 -12 12 4 20 2 16 -3 -3 -5 0 -17 6 -26 10 -16 11 -16 6 -1
-4 13 -1 15 12 11 9 -3 22 -10 28 -14 6 -5 15 -5 20 -1 4 4 2 -2 -6 -12 -8
-11 -10 -17 -4 -13 7 4 17 0 24 -8 7 -8 17 -12 24 -8 17 11 37 12 30 2 -3 -5
-10 -7 -15 -4 -5 3 -6 -1 -2 -10 5 -14 8 -14 15 -3 7 10 11 10 15 1 2 -7 13
-13 24 -13 10 0 19 -4 19 -10 0 -5 7 -10 16 -10 9 0 12 -5 8 -12 -5 -10 -4
-10 7 0 11 10 16 8 26 -10 9 -15 12 -17 11 -6 -2 9 2 17 7 17 6 0 8 -8 7 -17
-3 -14 -2 -14 14 -1 11 8 15 9 10 2 -4 -8 -1 -13 9 -13 10 0 13 -5 9 -12 -5
-9 -2 -9 9 1 20 16 23 2 5 -19 -11 -12 -10 -12 3 -2 12 9 22 7 45 -7 22 -14
35 -16 48 -9 14 8 19 5 23 -11 5 -18 8 -19 21 -9 10 8 13 8 9 2 -4 -7 0 -15 9
-18 10 -4 13 -2 8 7 -5 8 -2 7 9 -2 9 -7 17 -10 17 -5 0 4 7 -1 16 -12 8 -10
12 -13 8 -5 -5 10 -3 12 5 6 7 -4 11 -16 8 -26 -3 -11 -1 -17 4 -13 5 3 9 13
10 22 0 11 2 12 6 4 2 -7 14 -17 26 -24 l22 -11 -20 23 -20 23 23 -14 c12 -8
22 -17 22 -21 0 -4 8 -4 18 -1 15 6 16 5 2 -12 -8 -10 -9 -16 -3 -11 7 4 23 2
35 -4 23 -11 23 -11 3 6 l-20 17 20 -8 c11 -5 30 -9 42 -9 14 -1 18 -5 12 -12
-13 -16 2 -26 18 -13 10 9 13 8 13 -5 0 -10 5 -14 10 -11 6 4 7 11 4 17 -4 6
2 5 15 -2 12 -6 19 -15 16 -20 -3 -5 4 -7 15 -5 11 2 20 -2 20 -8 0 -7 4 -6
10 3 8 12 10 12 10 1 0 -8 3 -11 7 -8 3 4 16 1 29 -7 12 -8 25 -12 29 -8 17
17 70 -11 58 -31 -3 -5 10 -1 28 9 33 16 33 16 19 -1 -14 -17 -14 -18 9 -5 20
10 23 10 18 -2 -3 -8 1 -15 9 -15 7 0 11 3 9 7 -2 4 2 7 10 7 8 0 12 -4 9 -9
-8 -13 11 -9 25 5 10 10 11 9 6 -5 -5 -13 -2 -16 17 -11 19 4 20 3 8 -7 -13
-10 -13 -11 3 -6 9 3 25 9 35 12 14 5 15 4 2 -5 -12 -9 -9 -11 15 -11 17 0 36
4 43 10 9 7 9 7 2 -2 -17 -20 -11 -25 29 -24 22 1 37 -2 35 -6 -3 -5 -1 -8 5
-8 5 0 13 4 16 10 3 5 12 10 18 9 9 0 9 -2 0 -6 -7 -2 -13 -9 -13 -14 0 -6 8
-5 20 1 12 6 20 7 20 1 0 -5 -6 -12 -12 -14 -7 -3 4 -3 24 -1 20 2 40 -1 43
-7 4 -6 11 -6 18 -1 16 12 47 11 47 -2 0 -6 4 -6 12 2 8 8 17 6 36 -9 14 -11
28 -16 31 -11 9 12 31 9 40 -6 7 -11 9 -11 14 1 5 12 32 16 45 7 1 -2 6 -3 11
-4 5 0 13 -4 17 -9 11 -11 26 -9 19 3 -3 6 -1 10 4 10 6 0 11 -10 12 -22 0
-22 1 -22 9 -3 5 11 9 15 9 9 1 -6 12 -11 26 -11 14 0 25 5 25 11 0 6 4 6 9
-2 4 -8 11 -13 15 -13 20 3 26 0 21 -9 -4 -6 2 -7 18 -1 17 7 29 6 37 -2 9 -9
11 -9 7 -1 -4 7 0 14 8 18 8 3 14 2 14 -2 -4 -28 2 -34 16 -16 13 16 16 17 25
4 9 -13 10 -13 10 0 0 12 2 12 9 1 6 -9 11 -10 15 -2 11 17 26 13 26 -6 0 -15
2 -16 10 -3 5 8 25 15 49 15 22 0 37 -3 35 -7 -3 -5 -9 -6 -14 -3 -5 3 -11 2
-14 -3 -2 -4 9 -8 25 -7 16 0 29 4 29 9 0 6 7 1 15 -10 13 -16 14 -16 9 -1 -3
9 -1 17 5 17 6 0 11 -6 11 -12 0 -9 4 -8 10 2 8 12 10 12 10 -5 1 -19 1 -19
11 -2 6 9 14 15 20 12 5 -4 9 0 9 7 0 7 7 2 16 -10 10 -15 20 -20 27 -14 18
14 89 14 81 0 -4 -7 -3 -8 4 -4 6 4 8 14 5 24 -4 13 -2 13 10 -3 16 -20 16
-20 17 -1 0 20 0 20 16 0 8 -10 13 -14 10 -7 -4 6 -2 14 4 18 5 3 10 1 10 -6
0 -7 3 -9 7 -6 3 4 16 -1 27 -10 17 -15 18 -15 8 -2 -10 14 -10 18 4 23 19 7
37 -2 29 -15 -3 -5 1 -6 10 -2 13 5 14 7 3 14 -10 7 -9 9 4 9 9 0 22 -8 28
-17 10 -16 11 -16 7 3 -4 21 13 27 29 11 4 -4 13 -2 21 5 11 9 12 7 7 -8 -6
-16 -5 -17 7 -6 16 14 33 16 24 2 -3 -6 1 -7 9 -4 9 3 13 11 9 17 -4 6 -1 7 7
2 7 -5 26 -9 40 -9 20 -1 26 3 22 14 -5 13 -4 13 13 0 11 -9 16 -10 11 -2 -4
6 -2 12 3 12 6 0 11 -6 11 -12 0 -10 3 -9 9 1 7 11 9 11 14 0 5 -12 6 -12 6 0
1 11 4 11 16 1 13 -11 14 -10 10 2 -4 9 0 15 9 15 8 0 13 -4 10 -8 -2 -4 1
-11 7 -15 8 -5 9 -3 4 6 -6 10 -1 12 19 8 14 -3 29 -1 33 5 3 5 1 7 -5 3 -6
-3 -13 -2 -16 3 -4 5 2 8 11 6 10 -2 18 -4 18 -5 0 -1 8 -3 18 -5 13 -2 17 1
13 11 -7 19 -1 18 20 -3 17 -17 17 -17 12 4 -5 19 -4 20 13 10 16 -10 21 -9
29 3 7 11 10 11 10 2 0 -7 5 -10 10 -7 6 4 7 12 3 18 -4 8 -1 7 9 -1 11 -9 18
-10 23 -2 3 6 11 8 16 5 17 -11 50 -14 44 -4 -4 5 -11 6 -17 3 -7 -4 -8 -2 -4
5 4 6 11 9 16 6 5 -3 22 -7 39 -9 27 -3 30 -1 19 12 -9 11 -9 14 -1 9 6 -4 14
-3 17 2 7 10 25 9 43 -2 6 -4 15 -2 19 4 5 8 3 9 -6 4 -9 -5 -11 -4 -6 3 5 9
13 9 28 1 16 -9 19 -8 13 2 -6 9 -3 11 8 6 10 -4 17 -1 17 6 0 8 4 6 10 -3 8
-12 10 -12 10 -1 0 11 3 11 17 0 11 -10 14 -10 9 -2 -4 8 -2 13 4 13 6 0 9 4
6 8 -6 11 34 9 51 -1 9 -6 11 -3 6 10 -6 15 -4 16 9 5 11 -9 18 -10 23 -2 3 6
11 8 16 5 5 -4 12 1 15 9 3 9 10 16 15 16 4 0 5 -8 2 -17 -7 -17 -6 -17 11 -1
10 10 14 23 10 30 -6 9 -3 9 9 -1 12 -9 17 -10 17 -2 0 9 6 9 23 0 20 -11 21
-11 8 5 -12 15 -12 17 0 14 8 -2 17 -7 21 -13 5 -6 8 -5 8 3 0 8 5 10 13 6 8
-5 7 -2 -2 9 -12 15 -12 17 2 12 8 -4 18 -2 22 4 4 8 12 8 26 1 15 -9 19 -7
19 7 0 15 2 16 10 3 9 -14 14 -7 11 13 -1 4 8 3 19 -3 16 -9 18 -8 14 5 -4 8
-2 15 4 15 6 0 13 -6 15 -12 4 -10 6 -10 6 0 1 6 8 12 17 12 9 0 12 5 8 13 -5
7 0 6 11 -3 11 -9 16 -10 11 -2 -4 7 -1 12 9 12 9 0 14 4 10 9 -3 5 -1 12 4
15 5 4 13 1 17 -5 5 -8 3 -9 -6 -4 -9 5 -11 4 -6 -4 6 -9 11 -9 22 0 7 6 12
15 9 19 -2 4 3 7 13 7 36 0 43 3 36 16 -5 7 -2 7 10 -2 15 -12 17 -12 14 0 -2
9 5 14 19 13 13 -1 20 3 16 9 -4 6 0 8 11 4 10 -4 15 -3 11 3 -3 6 -1 10 5 10
6 0 8 5 4 11 -4 7 2 6 17 -2 22 -11 23 -11 10 5 -12 14 -12 16 4 10 14 -6 16
-4 10 7 -7 12 -6 12 7 1 13 -10 18 -10 24 -1 5 8 3 9 -6 4 -9 -5 -11 -4 -6 4
4 6 13 10 21 9 7 -2 21 6 31 17 11 12 15 15 10 8 -6 -10 -4 -12 8 -7 9 3 16
12 16 19 0 7 8 12 18 11 11 -1 16 6 16 17 -2 18 -1 18 19 0 11 -10 17 -12 13
-6 -4 7 -2 21 4 30 11 17 11 17 6 -1 -6 -16 -4 -17 9 -6 8 7 12 16 9 21 -3 5
1 6 9 3 8 -3 18 0 23 7 5 8 3 10 -7 4 -12 -7 -12 -6 -1 7 7 9 22 15 32 13 14
-3 17 1 13 13 -6 15 -4 15 10 4 14 -12 16 -11 12 8 -4 19 -2 20 12 8 14 -11
16 -11 8 1 -6 11 -4 13 8 8 12 -4 17 -1 17 10 0 14 2 14 16 -3 8 -10 13 -13 9
-6 -10 20 4 35 21 21 11 -9 14 -8 14 7 0 16 2 17 10 4 9 -13 10 -13 10 0 0 12
2 12 9 1 6 -9 11 -10 15 -2 4 6 13 11 19 11 7 0 6 -4 -3 -10 -11 -7 -5 -10 23
-10 23 0 37 -5 37 -12 0 -9 4 -8 10 2 6 10 10 11 10 3 0 -7 7 -13 16 -13 8 0
13 -4 10 -8 -2 -4 4 -8 14 -8 16 0 17 3 7 16 -10 13 -10 13 5 2 9 -7 22 -12
30 -11 22 4 48 -12 41 -25 -4 -6 2 -4 12 4 11 9 16 10 11 3 -4 -7 -2 -13 3
-13 6 0 11 6 11 13 0 8 3 9 8 1 4 -6 15 -10 25 -8 9 1 15 -2 11 -7 -3 -5 -9
-7 -14 -4 -5 3 -11 1 -14 -3 -6 -10 56 -8 72 2 6 3 14 1 18 -5 5 -8 3 -9 -7
-4 -8 5 -5 -1 5 -13 21 -24 36 -31 17 -8 -17 20 4 30 22 11 12 -11 17 -12 20
-2 3 9 12 8 36 -5 18 -10 29 -14 26 -8 -3 5 0 12 6 16 7 4 9 3 6 -2 -3 -6 -2
-16 4 -24 7 -13 9 -12 9 2 0 9 5 20 12 24 6 4 8 3 4 -4 -3 -6 -2 -13 4 -17 6
-4 7 -11 4 -17 -4 -7 -2 -8 5 -4 6 4 9 11 6 15 -2 5 11 8 30 7 19 0 35 -4 35
-7 0 -13 29 -18 36 -7 4 7 3 8 -4 4 -7 -4 -12 -2 -12 3 0 13 17 14 24 2 3 -5
14 -11 25 -14 14 -3 18 -1 14 9 -3 8 0 14 6 14 10 0 15 -14 12 -33 -1 -5 3 -6
9 -2 5 3 10 14 10 23 1 13 5 11 16 -8 l15 -25 -5 25 -5 25 19 -25 c16 -22 20
-23 25 -8 4 9 13 14 21 11 8 -3 12 -9 9 -13 -7 -11 22 -6 32 5 4 4 2 5 -6 0
-9 -5 -12 -4 -7 3 8 13 36 5 36 -12 0 -6 5 -4 11 4 8 12 12 12 16 2 4 -10 9
-8 20 7 12 18 17 19 36 9 24 -13 66 -12 82 3 12 12 25 11 25 -2 0 -5 -6 -7
-12 -3 -9 5 -9 2 1 -9 14 -18 26 -24 17 -8 -3 5 2 15 11 22 9 8 14 9 10 3 -4
-7 0 -14 8 -17 9 -4 12 -1 9 8 -4 10 1 13 21 9 19 -3 24 -1 19 7 -5 8 -3 9 7
4 24 -15 50 -13 44 3 -4 12 -3 13 10 2 12 -10 15 -10 15 1 0 10 2 11 8 2 5 -8
13 -9 22 -3 13 8 13 10 1 10 -8 0 -12 2 -9 5 9 10 38 -7 32 -19 -3 -6 1 -3 9
7 14 17 16 17 25 2 8 -16 9 -16 16 0 5 14 9 15 21 5 13 -11 14 -10 9 4 -5 12
-2 15 12 9 13 -5 15 -3 9 7 -5 8 -4 11 3 6 5 -3 12 -3 15 1 2 5 2 3 1 -4 -2
-7 2 -15 8 -19 7 -4 8 -3 4 4 -4 7 -1 12 8 12 9 0 16 6 16 13 0 9 2 9 8 0 8
-13 37 -12 49 2 4 4 3 5 -3 2 -7 -4 -14 -1 -17 6 -3 7 4 12 19 12 17 0 23 -4
19 -14 -5 -12 -3 -12 12 0 10 7 24 20 32 29 12 13 13 13 8 -2 -3 -10 -1 -20 5
-24 6 -4 8 -3 5 3 -8 13 18 36 44 38 16 1 17 -1 6 -14 -10 -14 -10 -14 4 -4 9
7 19 10 23 6 4 -4 4 0 0 10 -3 9 -2 17 4 17 6 0 13 -6 15 -12 3 -7 6 -2 6 12
1 19 3 22 10 10 6 -8 7 -19 5 -25 -3 -5 6 4 21 20 19 22 24 25 19 10 -5 -17
-2 -16 16 5 12 14 19 19 15 13 -4 -8 0 -13 10 -13 9 0 14 4 10 9 -3 5 5 11 17
13 13 2 22 9 21 15 -3 13 34 6 57 -10 12 -9 13 -9 3 3 -19 21 -16 29 12 25 15
-1 29 4 35 14 8 13 10 14 10 1 1 -9 4 -7 10 6 5 14 17 21 32 20 13 -1 26 5 29
13 3 8 13 15 22 17 10 1 15 -2 11 -7 -3 -5 -10 -6 -16 -3 -7 5 -8 2 -4 -5 6
-9 13 -8 27 5 10 9 16 21 13 25 -3 5 3 6 12 2 10 -4 15 -2 11 4 -3 5 0 10 8
10 8 0 15 -5 15 -11 0 -6 4 -5 9 3 5 8 7 21 4 30 -4 11 -1 10 9 -3 14 -18 15
-18 21 4 5 21 8 22 23 9 16 -12 17 -12 11 3 -3 10 -3 17 1 17 20 -3 33 2 27
11 -3 6 1 7 9 4 9 -4 16 -1 16 6 0 7 7 10 16 6 11 -4 15 -2 11 8 -3 8 1 17 9
20 9 3 12 1 9 -4 -9 -15 5 -12 21 5 9 8 12 15 7 15 -4 0 0 5 10 11 13 8 22 7
33 -2 12 -10 13 -9 8 6 -5 13 -4 16 4 11 8 -5 10 -2 6 9 -4 10 -2 15 7 13 8
-2 13 3 11 11 -3 12 0 12 12 2 11 -9 16 -9 22 0 4 8 3 9 -4 5 -7 -4 -12 -4
-12 -1 0 3 14 11 30 16 17 6 30 17 30 25 0 7 6 11 14 8 8 -3 17 0 22 7 4 8 3
10 -4 5 -7 -4 -12 -2 -12 3 0 6 11 11 24 11 14 0 28 5 32 12 4 6 3 8 -4 4 -6
-3 -13 -3 -16 2 -3 5 1 9 9 10 8 1 21 3 29 4 8 1 12 7 9 15 -3 7 -1 13 5 13 6
0 13 -6 15 -12 3 -8 6 -6 6 5 1 9 6 17 12 17 5 0 7 5 3 12 -5 8 -2 9 10 5 10
-4 15 -3 11 3 -3 6 1 13 9 16 9 3 13 10 10 15 -3 5 3 6 13 2 16 -6 17 -5 3 12
-14 17 -14 18 9 6 19 -11 22 -11 16 0 -6 9 -3 10 10 5 16 -6 16 -4 4 11 -12
15 -12 16 4 10 11 -4 17 -1 17 9 0 9 9 18 21 21 16 4 17 8 7 14 -9 6 -6 9 11
9 16 0 21 4 17 15 -3 8 -2 14 2 14 20 -3 33 2 27 11 -3 6 1 10 9 10 8 0 18 5
22 12 4 7 3 8 -4 4 -7 -4 -12 -2 -12 3 0 6 9 11 20 11 14 0 18 5 13 17 -4 11
-3 14 5 9 7 -4 12 -2 12 3 0 6 6 10 12 9 7 -2 14 7 16 20 2 16 8 22 18 18 9
-3 12 -1 9 4 -3 6 1 13 9 16 9 3 16 10 16 16 0 5 -5 6 -12 2 -7 -4 -8 -3 -4 4
4 6 13 9 21 5 11 -4 13 -1 9 11 -4 11 -2 16 7 14 9 -2 14 5 13 18 -1 11 5 21
11 21 7 0 11 -7 8 -16 -3 -11 0 -10 7 3 10 15 9 20 -1 27 -11 7 -10 9 3 9 12
0 16 6 13 20 -2 12 0 18 6 15 5 -4 6 -12 2 -18 -4 -7 1 -6 11 2 9 8 15 20 12
28 -3 8 -1 11 4 8 6 -3 10 1 10 9 0 9 5 16 11 16 5 0 7 -6 4 -12 -4 -7 2 -2
13 12 11 13 18 28 16 32 -3 4 0 8 5 8 6 0 11 5 11 11 0 5 -4 7 -10 4 -5 -3
-10 -4 -10 0 0 3 11 10 25 15 16 6 23 14 19 25 -4 10 0 15 10 15 12 0 15 7 12
26 -3 15 -3 24 1 21 7 -8 33 18 33 33 0 6 4 9 9 5 5 -3 12 -1 16 5 3 5 1 10
-5 10 -6 0 -8 5 -5 10 4 6 11 7 17 4 6 -4 6 2 -1 15 -9 16 -9 20 2 15 8 -3 20
2 27 11 7 8 9 15 5 15 -4 0 -2 7 5 15 11 13 10 14 -5 8 -17 -6 -17 -5 1 14 10
11 22 18 26 16 4 -2 5 4 1 13 -5 13 -3 15 7 9 8 -5 11 -3 8 6 -3 8 2 20 11 27
14 12 14 13 -3 7 -19 -6 -19 -5 -1 15 19 21 30 27 20 10 -3 -5 -1 -10 5 -10 7
0 9 8 5 20 -5 14 -2 20 10 20 9 0 14 4 10 10 -3 5 -13 6 -23 3 -14 -5 -14 -3
2 9 10 8 16 19 13 24 -3 6 -1 16 5 24 8 12 9 12 4 -2 -3 -10 -1 -20 4 -23 10
-6 12 5 13 52 0 15 4 20 15 15 10 -3 13 -1 8 6 -4 7 -2 12 4 12 6 0 8 5 5 10
-4 6 -12 8 -18 4 -7 -3 -1 4 12 15 14 13 18 21 10 22 -8 0 -4 4 9 9 20 9 21
12 11 32 -12 22 -11 22 6 8 12 -10 16 -11 11 -2 -10 17 2 65 14 57 5 -3 12 0
16 6 4 7 3 9 -3 6 -6 -4 -13 2 -16 14 -5 17 -3 18 9 8 12 -10 15 -10 12 2 -2
8 -7 17 -13 21 -6 4 -2 8 8 8 9 0 17 7 17 15 0 7 8 19 18 25 14 9 14 10 -6 5
-21 -6 -22 -5 -11 13 7 12 18 18 24 14 5 -3 4 1 -2 10 -7 8 -10 18 -6 21 3 4
1 7 -6 7 -6 0 -1 11 11 24 13 13 27 21 32 18 5 -3 6 0 2 7 -5 8 -12 9 -19 2
-9 -7 -12 -2 -13 17 -1 15 1 21 3 15 7 -19 20 -16 26 7 3 11 1 18 -3 15 -14
-9 -2 36 15 55 12 13 12 19 2 30 -10 10 -9 12 4 7 11 -4 16 0 15 11 0 9 5 16
12 14 17 -3 15 3 -5 19 -9 8 -14 9 -10 3 4 -7 -1 -18 -11 -25 -15 -13 -16 -12
-3 4 7 9 10 17 5 17 -4 0 -3 5 4 12 15 15 16 31 0 22 -7 -5 -8 -3 -4 5 5 7 14
10 22 7 8 -3 11 0 7 9 -3 8 -9 13 -13 10 -5 -3 -6 4 -3 16 4 16 8 18 14 7 6
-9 8 -5 7 12 -2 16 2 24 10 22 10 -2 10 2 0 17 -7 11 -17 17 -23 15 -5 -3 -1
2 9 10 12 9 14 16 7 16 -9 0 -8 5 3 16 20 19 21 31 2 15 -12 -10 -13 -8 -9 8
3 12 9 19 12 16 4 -2 8 2 8 10 0 8 -5 11 -11 8 -6 -3 -5 0 2 8 14 16 16 33 2
24 -5 -3 -10 -2 -10 3 0 17 13 22 28 9 13 -11 14 -9 2 10 -8 12 -19 19 -25 16
-5 -2 1 4 14 15 18 14 21 21 11 27 -9 6 -11 4 -5 -6 8 -12 6 -12 -8 0 -18 14
-24 26 -8 17 12 -8 20 41 9 52 -6 6 -5 13 3 17 8 6 10 4 4 -6 -8 -12 -6 -12 8
0 18 14 23 26 8 16 -5 -3 -12 -1 -15 4 -4 5 -2 13 4 16 8 5 7 12 -2 22 -10 12
-9 18 7 30 17 13 17 15 3 10 -20 -7 -24 3 -7 20 8 8 8 13 0 17 -6 4 -11 14
-11 22 0 8 5 12 11 9 6 -4 5 2 -2 13 -11 17 -10 24 2 38 9 11 9 15 2 10 -7 -4
-13 -4 -14 1 -4 49 -2 73 6 69 6 -2 11 4 11 14 0 10 -5 16 -10 13 -5 -4 -7 3
-4 15 4 12 2 24 -3 27 -4 3 -5 13 -2 22 5 13 2 15 -15 11 -12 -4 -20 -2 -16 3
3 5 12 9 20 9 14 0 13 2 0 16 -19 19 -21 31 -3 16 10 -8 13 -6 13 8 0 10 -3
17 -6 15 -3 -2 -12 0 -20 6 -13 7 -12 9 2 9 9 0 20 5 24 12 4 7 3 8 -4 4 -8
-5 -12 0 -12 13 0 10 -6 22 -12 24 -10 4 -10 6 0 6 6 1 12 6 12 12 0 5 -6 7
-12 3 -9 -5 -9 -2 1 9 16 20 2 23 -19 5 -12 -11 -12 -10 -2 3 6 9 8 20 4 24
-4 5 2 5 13 1 18 -5 17 -4 -3 12 -18 14 -20 20 -10 30 9 9 9 12 0 12 -7 0 -12
5 -12 11 0 5 4 8 8 5 5 -3 9 1 9 9 0 8 -4 12 -9 9 -7 -4 -12 31 -11 73 1 7 -3
10 -8 7 -5 -3 -9 9 -9 26 0 22 -4 29 -12 24 -9 -5 -9 -2 1 9 7 9 10 17 5 17
-5 0 -14 11 -21 25 -6 14 -7 23 -2 19 5 -3 9 0 9 5 0 6 -4 11 -10 11 -5 0 -6
7 -3 17 5 12 3 14 -7 8 -10 -6 -12 -4 -7 8 3 10 3 17 -2 17 -5 0 -9 6 -8 13 1
32 -4 48 -13 42 -5 -3 -10 -1 -10 4 0 6 6 11 13 11 6 0 4 5 -6 11 -11 7 -16
17 -12 29 4 12 -1 19 -17 23 -17 5 -20 9 -11 18 9 9 8 15 -3 26 -9 9 -12 23
-8 35 4 15 3 18 -7 13 -9 -6 -11 -3 -6 9 6 14 3 17 -10 12 -10 -4 -14 -4 -10
0 4 4 1 14 -6 22 -10 13 -9 14 2 7 11 -6 13 -4 8 8 -4 10 -1 17 5 17 6 0 8 3
5 6 -4 4 -15 1 -24 -7 -10 -7 -15 -9 -10 -4 4 4 -1 17 -10 28 -10 11 -12 17
-5 13 18 -11 15 5 -5 21 -12 10 -13 12 -3 8 10 -4 9 -2 -2 8 -10 8 -15 17 -11
21 4 3 -4 14 -17 23 -21 15 -22 17 -6 29 11 8 13 14 7 19 -6 3 -11 1 -11 -4 0
-6 -4 -11 -10 -11 -5 0 -6 7 -3 17 5 11 3 14 -6 8 -11 -6 -11 -3 0 16 12 23
11 23 -6 9 -10 -8 -16 -10 -12 -3 4 6 0 18 -8 26 -8 9 -15 21 -15 27 0 6 -5 8
-12 4 -9 -5 -8 -2 1 9 12 15 12 17 -4 11 -13 -5 -16 -4 -11 4 4 7 2 12 -4 12
-6 0 -8 5 -4 12 5 7 2 9 -7 6 -9 -4 -15 1 -17 13 -1 11 -3 28 -4 38 -1 11 -5
18 -9 16 -3 -3 -15 2 -25 10 -18 13 -18 14 6 9 23 -4 23 -3 -2 7 -16 6 -28 15
-28 20 0 6 4 8 8 5 5 -3 9 1 9 9 0 10 -4 12 -12 5 -15 -13 -25 -3 -19 18 3 10
-1 6 -10 -8 l-15 -25 3 37 c2 27 0 35 -10 31 -9 -3 -14 2 -14 12 0 11 -5 15
-14 12 -20 -8 -27 3 -16 24 8 15 7 17 -9 14 -14 -2 -18 1 -14 10 3 9 -5 19
-21 26 -21 10 -24 15 -14 26 6 8 7 13 2 12 -19 -3 -34 1 -34 12 0 5 6 7 13 3
8 -5 8 -2 -2 9 -15 18 -26 23 -16 7 3 -6 1 -10 -4 -10 -6 0 -11 7 -11 16 0 10
-6 14 -14 11 -10 -4 -12 1 -9 16 4 18 3 19 -6 7 -9 -13 -11 -12 -11 3 0 10 -4
16 -9 12 -5 -3 -12 4 -16 15 -3 11 -15 25 -26 31 -12 6 -18 16 -16 24 4 9 -1
11 -14 8 -12 -4 -19 0 -19 9 0 8 -18 30 -41 49 -22 18 -43 36 -46 39 -4 3 -3
-1 1 -7 4 -7 2 -13 -3 -13 -6 0 -11 7 -11 17 0 9 -3 13 -7 10 -3 -4 -12 1 -20
11 -12 14 -14 14 -10 1 3 -9 -1 -16 -9 -16 -7 0 -11 4 -8 9 3 5 0 17 -8 26
-12 15 -11 16 5 3 9 -7 17 -9 17 -3 0 11 -24 22 -50 22 -10 0 -21 8 -25 18 -5
14 -4 15 6 5 7 -7 17 -13 23 -13 5 0 1 6 -10 14 -11 9 -23 11 -30 5 -7 -5 -11
-3 -11 6 0 8 5 15 10 15 6 0 7 3 4 6 -4 4 -13 2 -21 -5 -11 -9 -15 -8 -20 4
-3 9 -11 13 -17 9 -7 -4 -9 -3 -6 3 8 13 -20 26 -35 17 -6 -4 -8 1 -4 13 4 13
2 20 -8 20 -9 0 -13 -4 -10 -9 3 -4 0 -8 -5 -8 -6 0 -11 9 -11 20 0 15 -7 20
-25 20 -14 0 -28 6 -31 14 -3 8 -13 17 -21 20 -13 5 -14 4 -4 -8 9 -11 9 -16
0 -22 -7 -4 -9 -3 -6 3 8 13 -39 54 -56 47 -7 -2 -22 5 -33 17 -10 13 -13 19
-5 14 10 -6 12 -4 7 4 -6 9 -11 9 -22 0 -12 -10 -13 -8 -8 7 4 10 4 16 -1 12
-10 -9 -35 23 -28 35 3 5 15 0 26 -10 19 -16 20 -16 8 0 -11 14 -11 20 0 35
13 15 12 16 -3 3 -26 -19 -22 1 4 29 13 13 21 33 20 43 -3 13 2 17 15 15 13
-2 18 4 19 21 1 14 9 30 18 36 8 7 13 15 9 18 -3 4 1 7 11 7 11 0 14 4 10 12
-5 8 -2 9 10 5 14 -6 17 -3 12 8 -3 10 1 18 12 22 22 9 42 35 35 47 -4 5 -1 6
5 2 6 -4 8 -14 5 -24 -5 -14 -3 -14 9 2 9 12 20 16 29 12 8 -4 3 2 -11 13 -19
16 -20 20 -6 14 14 -5 17 -3 11 6 -6 10 -3 11 15 1 16 -8 20 -9 15 -1 -4 7 6
16 24 22 18 6 28 16 24 22 -4 7 0 8 11 4 10 -4 15 -3 11 3 -6 9 8 15 29 11 5
-1 6 5 3 14 -6 14 10 21 37 16 5 -1 6 6 2 15 -5 14 -4 15 8 5 11 -10 15 -8 20
6 4 11 17 19 33 20 15 0 29 6 31 12 3 9 8 9 17 1 11 -9 12 -6 8 12 -3 13 -1
19 4 13 11 -14 36 -18 28 -5 -3 5 -1 10 5 10 6 0 8 5 4 13 -5 7 -1 6 10 -3 16
-13 20 -12 36 8 18 21 37 31 26 13 -5 -8 15 -8 34 -1 3 1 8 2 12 1 4 0 5 6 2
14 -4 8 -2 15 4 15 6 0 12 -6 15 -12 3 -10 8 -10 18 1 9 9 9 11 2 7 -7 -4 -13
-3 -13 3 0 5 12 8 28 7 15 -2 40 5 57 17 20 14 26 16 17 5 -11 -13 -11 -18 0
-24 7 -4 10 -4 6 1 -12 13 25 35 39 23 9 -8 15 -4 22 13 9 21 10 22 11 4 0
-16 2 -17 10 -5 8 12 10 12 16 -3 6 -16 8 -16 22 4 15 22 16 22 23 3 7 -17 8
-17 8 -1 1 10 6 15 11 12 6 -4 18 -1 26 6 12 10 15 10 12 -1 -2 -7 3 -15 11
-18 10 -3 12 0 7 13 -5 15 -4 16 9 5 8 -7 15 -9 15 -4 0 5 8 0 17 -11 12 -15
14 -16 10 -3 -10 28 59 16 89 -17 23 -25 23 -26 3 -20 -14 5 -19 4 -15 -4 4
-6 1 -9 -7 -5 -9 3 -23 -7 -37 -25 -12 -17 -17 -31 -11 -31 6 0 11 5 11 11 0
5 5 7 11 3 8 -4 7 -9 -2 -15 -16 -10 -19 -29 -7 -46 6 -7 4 -14 -3 -19 -7 -4
-9 -3 -5 4 3 6 2 13 -4 17 -6 4 -8 10 -5 15 3 5 1 11 -4 14 -7 5 -8 -22 -1
-31 2 -2 4 -12 5 -23 1 -11 3 -23 4 -26 0 -4 8 -1 16 6 13 11 14 10 9 -5 -5
-13 -4 -16 4 -11 8 5 10 1 5 -10 -5 -13 -3 -15 8 -9 12 8 12 6 0 -9 -8 -9 -10
-16 -5 -15 20 3 35 -2 29 -10 -7 -12 59 -26 74 -17 5 4 14 -2 20 -11 10 -17
10 -17 11 1 0 15 3 16 15 6 12 -10 15 -10 15 1 0 11 2 11 10 -1 8 -12 10 -12
10 -1 0 8 7 11 20 8 11 -3 18 -2 15 3 -3 4 2 11 11 14 10 4 13 2 8 -6 -4 -7
-3 -8 4 -4 7 4 12 14 12 21 0 17 34 37 46 27 5 -4 2 2 -6 12 -10 13 -10 17 -2
12 7 -4 12 -2 12 4 0 6 5 8 13 3 6 -4 4 5 -6 20 -12 18 -13 26 -5 25 7 -2 14
4 14 12 1 8 3 17 4 20 8 22 6 39 -6 44 -9 3 -12 16 -10 36 3 24 0 30 -15 30
-12 0 -19 7 -19 20 0 14 -7 20 -22 21 -22 0 -22 1 -3 9 17 7 17 9 3 9 -10 1
-18 7 -18 14 0 8 -4 7 -10 -3 -8 -13 -10 -12 -10 3 0 9 -4 17 -10 17 -5 0 -18
10 -30 22 -11 12 -20 18 -20 12 0 -5 -5 -2 -11 6 -9 13 -10 13 -6 -1 4 -13 1
-15 -14 -12 -10 3 -16 9 -13 14 7 12 -3 11 -25 0 -13 -7 -18 -6 -18 4 0 8 5
11 11 8 6 -3 7 -2 3 2 -12 14 -38 15 -30 2 4 -8 1 -7 -9 1 -13 10 -17 10 -21
0 -4 -8 -6 -7 -6 5 -1 19 -16 23 -27 5 -5 -7 -3 -8 6 -3 9 6 11 4 5 -5 -6 -10
-12 -8 -27 9 -13 17 -18 19 -18 8 0 -9 -5 -19 -12 -23 -6 -4 -8 -3 -5 3 4 6 0
13 -8 17 -8 3 -15 0 -16 -7 0 -7 -4 -3 -9 8 -8 19 -9 19 -9 1 -1 -16 -3 -17
-18 -5 -10 8 -14 9 -10 2 4 -6 3 -14 -3 -18 -5 -3 -10 2 -11 12 0 10 -3 13 -5
6 -3 -7 -12 -9 -20 -6 -8 3 -21 0 -28 -6 -10 -8 -16 -9 -21 -1 -3 5 -12 10
-18 10 -7 0 -6 -4 3 -10 12 -8 11 -10 -7 -10 -13 0 -23 6 -24 13 -1 6 -5 1 -9
-13 l-8 -25 -1 25 c-1 19 -3 22 -10 10 -6 -8 -8 -17 -6 -20 2 -4 -2 -7 -10 -7
-8 0 -15 7 -16 16 0 13 -2 12 -8 -2 -4 -10 -10 -18 -14 -18 -22 3 -27 0 -21
-11 4 -7 3 -8 -5 -4 -6 4 -9 12 -6 17 4 5 2 9 -2 9 -5 0 -14 -10 -22 -22 -13
-21 -14 -21 -27 -3 -13 18 -14 18 -14 1 0 -14 -3 -16 -13 -7 -10 8 -19 6 -35
-9 -13 -12 -28 -17 -38 -13 -13 5 -16 2 -12 -8 4 -10 -1 -15 -14 -16 -17 -2
-18 0 -6 15 12 15 11 16 -4 4 -10 -8 -23 -10 -30 -6 -10 6 -9 3 1 -9 12 -15
11 -17 -13 -17 -14 0 -26 -6 -26 -12 0 -9 -4 -8 -10 2 -8 13 -10 13 -10 -1 0
-11 -8 -15 -25 -14 -16 2 -23 -1 -18 -8 4 -6 0 -8 -10 -4 -11 4 -14 2 -10 -9
4 -10 0 -12 -11 -8 -11 4 -16 1 -16 -10 0 -9 -5 -16 -11 -16 -5 0 -8 4 -5 8 3
5 -1 9 -9 9 -8 0 -13 -2 -10 -5 6 -6 -15 -25 -50 -42 -16 -8 -36 -23 -43 -33
-12 -15 -16 -16 -30 -5 -13 11 -14 11 -8 0 9 -14 -21 -55 -34 -47 -4 3 -20 -7
-36 -20 -17 -15 -23 -25 -15 -25 8 0 12 -3 9 -6 -4 -3 -15 -1 -26 5 -17 9 -19
8 -15 -9 4 -15 1 -18 -14 -16 -11 3 -26 0 -34 -6 -11 -8 -10 -9 4 -4 9 3 17 1
17 -5 0 -6 5 -7 12 -3 7 5 8 3 4 -5 -5 -7 -14 -10 -22 -7 -9 3 -14 -1 -15 -12
0 -10 -3 -12 -6 -4 -2 6 -9 10 -14 6 -5 -3 -4 -14 2 -27 l12 -22 -23 20 c-20
17 -23 18 -17 3 4 -10 2 -18 -3 -18 -6 0 -10 -7 -10 -15 0 -13 -12 -19 -32
-16 -4 0 -5 -6 -2 -14 4 -8 11 -12 17 -8 6 3 7 1 3 -5 -4 -6 -13 -9 -21 -6
-11 4 -13 -1 -9 -23 5 -27 5 -27 -11 -8 -8 11 -15 16 -14 10 3 -22 -1 -36 -9
-31 -5 3 -9 -2 -9 -10 0 -8 6 -13 14 -10 7 3 13 3 13 0 0 -2 -10 -8 -23 -13
-21 -8 -26 -22 -30 -78 0 -7 -5 -9 -10 -6 -6 4 -8 0 -4 -10 3 -9 2 -19 -4 -22
-5 -4 -7 -11 -3 -16 3 -6 -3 -5 -15 3 -12 7 -21 20 -21 28 0 13 -1 13 -10 0
-8 -12 -10 -12 -10 5 0 13 -3 16 -8 8 -12 -19 -51 -12 -47 9 3 14 0 15 -20 8
-16 -6 -27 -6 -31 2 -5 7 -2 8 7 3 8 -5 11 -4 6 1 -5 5 -25 9 -44 9 -26 1 -39
7 -44 21 -4 10 -8 13 -8 6 -1 -10 -5 -10 -17 2 -19 19 -31 21 -15 3 8 -11 6
-13 -12 -12 -12 1 -24 9 -25 19 -2 10 -10 15 -18 12 -7 -3 -16 -1 -19 4 -3 6
-16 5 -32 -1 -21 -8 -24 -7 -15 4 8 10 7 13 -8 13 -10 0 -17 -3 -15 -6 2 -4
-2 -7 -10 -7 -8 0 -12 4 -10 8 3 4 -2 9 -10 12 -10 4 -12 1 -9 -11 5 -14 4
-15 -5 -2 -11 17 -40 20 -58 6 -8 -5 -13 -4 -13 3 0 6 5 11 10 11 6 0 10 4 10
9 0 5 -9 7 -20 4 -16 -4 -20 0 -20 19 0 13 6 30 13 37 7 9 8 12 0 7 -13 -7
-12 19 2 31 4 4 5 2 1 -4 -4 -7 -2 -13 5 -13 6 0 9 8 6 19 -2 10 -1 25 4 32 4
8 3 16 -3 20 -7 4 -7 9 1 13 6 4 11 2 11 -3 0 -6 4 -11 10 -11 5 0 9 3 9 8 -4
21 2 32 14 26 9 -6 9 -5 0 8 -13 15 -8 28 11 28 6 0 4 -5 -4 -11 -13 -9 -13
-10 0 -6 8 2 14 14 14 25 -1 14 5 22 15 22 9 0 12 3 6 8 -5 4 -11 13 -13 21
-3 12 0 12 12 1 13 -10 16 -10 16 4 0 10 5 14 11 10 8 -5 8 -1 0 13 -9 18 -7
20 12 19 16 -1 21 4 19 18 -2 11 1 15 7 11 11 -6 15 7 11 35 -1 10 3 9 14 -5
14 -19 15 -19 10 9 -4 24 -2 27 8 18 10 -8 18 -8 28 0 12 8 12 9 -2 4 -22 -7
-24 10 -2 18 9 3 14 13 11 21 -4 10 -1 12 10 8 11 -4 14 -2 9 5 -4 8 0 12 11
12 15 0 16 2 3 10 -13 8 -12 10 5 11 11 1 23 1 26 1 4 -1 5 7 2 16 -2 10 5 26
19 37 l23 20 -18 -22 c-14 -16 -15 -23 -6 -29 7 -4 10 -3 5 4 -3 5 6 20 21 32
16 12 23 19 16 16 -6 -4 -15 -2 -18 4 -4 6 -3 10 2 9 16 -4 43 14 43 28 0 13
3 13 15 3 13 -11 14 -10 9 5 -5 13 -4 16 4 11 7 -4 12 -1 12 9 0 12 5 15 17
11 10 -4 14 -4 11 0 -4 3 -1 12 5 19 9 10 16 10 27 1 13 -9 13 -9 2 6 -9 11
-10 18 -2 23 6 3 7 11 4 17 -4 7 -2 8 5 4 6 -4 8 -13 4 -19 -3 -7 7 2 23 18
16 17 28 33 26 37 -2 4 3 5 11 2 8 -3 18 0 22 5 3 6 12 8 18 4 7 -4 5 2 -3 13
-8 10 -10 16 -6 12 5 -4 15 0 23 10 13 15 14 15 9 -8 -5 -23 -4 -23 6 3 7 16
17 26 25 22 8 -2 18 6 23 20 5 14 12 25 15 25 4 0 3 -4 0 -10 -3 -5 -1 -10 4
-10 6 0 11 8 11 18 0 13 2 14 9 3 6 -9 11 -10 15 -2 4 6 4 15 1 21 -3 6 1 7 9
4 9 -3 16 -10 16 -15 0 -6 13 4 29 20 19 20 31 26 35 18 3 -9 5 -9 5 0 1 7 8
10 19 7 12 -4 13 -3 4 3 -11 8 -11 12 0 21 19 15 30 15 39 0 7 -10 9 -9 9 5 0
9 -5 17 -12 17 -6 0 -9 3 -6 6 4 3 18 -2 32 -11 22 -15 25 -15 20 -2 -3 8 0
18 7 23 8 4 10 3 5 -4 -4 -7 -1 -12 9 -12 9 0 14 4 11 9 -3 5 3 11 15 14 17 5
18 3 7 -10 -12 -15 -11 -15 12 -3 14 8 31 13 39 11 8 -1 10 2 6 11 -7 11 -5
11 6 0 12 -11 12 -14 -1 -23 -12 -9 -12 -10 3 -5 10 3 21 6 23 6 3 0 2 6 -2
13 -5 7 -1 7 12 -3 10 -8 20 -15 22 -16 1 -1 -4 -7 -13 -14 -13 -11 -15 -10
-9 6 5 17 3 16 -14 -3 -15 -17 -22 -19 -32 -10 -10 9 -11 9 -5 -2 6 -11 4 -13
-11 -7 -10 4 -15 4 -12 0 4 -3 0 -13 -8 -21 -8 -8 -11 -19 -8 -25 5 -7 2 -8
-6 -3 -10 6 -12 4 -7 -8 4 -12 2 -14 -10 -10 -12 5 -14 3 -7 -8 13 -21 14 -39
2 -39 -6 0 -7 8 -3 18 5 14 4 15 -7 4 -11 -11 -10 -16 5 -27 18 -13 18 -13 0
-18 -16 -4 -16 -5 0 -6 20 -1 23 -17 5 -24 -10 -4 -10 -6 0 -6 6 -1 12 -6 12
-12 0 -5 -6 -7 -12 -3 -9 5 -9 3 1 -9 7 -9 17 -14 22 -11 13 8 11 -10 -3 -24
-9 -9 -4 -10 20 -3 17 5 31 6 31 3 -3 -20 2 -25 11 -12 9 13 10 13 10 0 0 -13
1 -13 10 0 8 13 13 13 31 2 11 -8 18 -9 14 -3 -3 6 1 11 10 11 9 0 14 -4 10
-9 -3 -5 0 -13 6 -17 7 -4 9 -3 6 2 -3 6 -2 16 4 24 7 13 9 13 9 1 0 -11 4 -9
15 5 8 10 15 15 15 9 0 -5 5 -3 11 5 9 13 10 12 5 -2 -3 -10 -1 -20 5 -23 5
-4 9 -3 8 2 -3 20 2 34 10 28 6 -3 8 4 6 15 -3 17 -1 19 15 10 15 -8 17 -7 12
12 -4 15 -2 19 7 14 9 -6 11 3 7 33 -2 24 0 39 5 35 5 -3 6 -10 3 -16 -4 -6
-2 -8 4 -5 14 9 8 43 -8 39 -6 -1 -9 2 -5 8 3 6 11 8 16 5 5 -4 9 -2 9 3 0 6
-8 13 -17 17 -17 6 -16 8 4 24 14 12 18 22 13 31 -5 7 -7 22 -5 32 2 10 0 16
-6 13 -5 -4 -7 -11 -4 -16 4 -5 1 -9 -5 -9 -6 0 -8 10 -4 26 5 19 4 25 -5 20
-6 -4 -11 -1 -11 9 0 10 -5 14 -12 9 -10 -6 -10 -4 0 7 14 15 16 33 3 24 -5
-3 -16 1 -24 9 -9 10 -18 11 -26 5 -6 -5 -9 -6 -6 -3 8 12 -22 33 -54 36 -18
2 -37 10 -43 18 -8 13 -9 13 -5 -1 3 -9 -1 -16 -9 -16 -9 0 -13 6 -9 16 5 13
4 14 -6 4 -17 -17 -32 -17 -24 0 4 6 -1 3 -9 -7 -10 -12 -16 -15 -16 -7 0 7
-9 3 -20 -10 -11 -13 -20 -19 -19 -14 3 22 -2 23 -34 10 -24 -10 -37 -11 -44
-4 -7 7 -15 5 -24 -8 -20 -27 -50 -37 -43 -15 5 15 4 15 -6 -1 -6 -9 -8 -23
-5 -30 4 -6 -1 -3 -9 7 -14 17 -16 17 -16 3 0 -10 -7 -15 -20 -12 -13 3 -20
-2 -20 -12 0 -13 -3 -13 -15 -3 -13 11 -14 10 -9 -5 5 -13 4 -16 -4 -11 -8 4
-12 0 -12 -11 0 -15 -2 -16 -10 -3 -7 11 -10 11 -10 2 0 -7 -4 -10 -10 -7 -5
3 -10 1 -10 -5 0 -6 -5 -8 -12 -4 -7 5 -9 2 -5 -8 8 -21 -3 -30 -20 -17 -10 9
-13 8 -13 0 0 -7 -4 -10 -9 -6 -5 3 -13 0 -17 -6 -4 -7 -3 -9 4 -5 6 3 14 1
18 -5 4 -7 3 -9 -4 -5 -6 3 -18 -2 -28 -11 -16 -16 -16 -16 -9 7 7 24 7 24 -8
5 -8 -11 -13 -24 -10 -29 4 -5 1 -6 -5 -2 -6 4 -20 -2 -31 -13 -13 -13 -21
-16 -25 -8 -2 7 -5 4 -5 -7 -1 -13 -6 -16 -17 -12 -14 5 -15 4 -5 -8 9 -11 8
-15 -4 -20 -11 -4 -14 -2 -10 7 4 6 -5 0 -18 -15 -14 -15 -29 -24 -33 -20 -5
4 -2 -1 5 -10 11 -15 10 -17 -9 -13 -15 3 -23 -3 -30 -20 -5 -14 -12 -25 -15
-25 -4 0 -3 4 0 10 3 6 -1 7 -9 4 -9 -3 -13 -10 -10 -15 3 -5 0 -9 -6 -9 -6 0
-8 -5 -4 -11 4 -7 -2 -7 -17 1 -20 10 -22 10 -11 -1 14 -16 16 -33 2 -24 -5 3
-10 -1 -10 -9 0 -8 -5 -18 -12 -22 -7 -5 -9 -2 -4 7 5 8 2 8 -6 -2 -7 -9 -20
-14 -28 -12 -9 3 -11 1 -5 -4 18 -14 11 -38 -10 -35 -11 2 -17 1 -13 -4 4 -4
-5 -18 -20 -32 -15 -13 -21 -21 -14 -18 6 4 12 5 12 2 0 -3 -15 -13 -32 -21
-18 -8 -26 -13 -17 -11 9 2 16 -2 16 -9 0 -8 -7 -11 -15 -7 -12 4 -14 0 -10
-16 4 -12 1 -25 -4 -29 -6 -3 -8 -2 -5 3 3 6 -4 16 -16 24 -20 12 -21 12 -8
-3 12 -16 8 -22 -12 -18 -5 1 -6 -3 -2 -9 3 -6 11 -7 17 -4 7 4 8 2 4 -4 -4
-7 -14 -12 -22 -12 -8 0 -14 -5 -14 -11 0 -5 6 -7 13 -4 6 4 0 -5 -15 -18 -15
-14 -24 -28 -21 -31 4 -3 0 -6 -9 -6 -9 0 -14 -8 -13 -22 1 -14 -14 -42 -41
-72 -23 -27 -40 -55 -37 -62 3 -8 2 -22 -1 -31 -6 -15 -8 -15 -16 -3 -7 11 -9
10 -8 -7 1 -11 7 -20 13 -19 5 2 7 1 2 -1 -4 -3 -5 -9 -2 -14 4 -5 -2 -6 -12
-2 -16 6 -17 5 -3 -12 9 -11 10 -16 3 -11 -16 9 -17 -6 -2 -21 8 -8 6 -11 -6
-10 -10 1 -20 -5 -22 -13 -4 -13 -3 -13 6 0 6 9 11 10 11 3 0 -6 -6 -18 -14
-26 -11 -11 -12 -17 -3 -27 10 -10 7 -12 -10 -7 -12 3 -22 2 -21 -2 3 -28 -4
-33 -17 -11 -8 14 -14 20 -15 14 0 -9 -55 -12 -55 -4 0 8 -62 5 -72 -3 -9 -6
-13 -6 -13 2 0 6 -5 11 -11 11 -5 0 -7 -4 -4 -10 3 -5 -13 -3 -36 5 -38 14
-44 14 -60 -1 -13 -12 -19 -12 -25 -3 -4 8 -3 10 4 5 8 -5 10 -1 5 10 -5 15
-7 15 -16 -1 -8 -14 -11 -15 -18 -4 -5 8 -9 9 -9 3 0 -6 -15 -10 -37 -8 -21 1
-44 -3 -52 -9 -12 -10 -13 -9 -8 7 6 15 5 17 -6 8 -8 -7 -18 -8 -22 -4 -5 4
-5 -2 -1 -12 5 -16 4 -17 -9 -6 -8 7 -15 9 -15 4 0 -4 -5 -3 -12 4 -15 15 -28
15 -28 1 0 -5 4 -7 10 -4 6 3 7 -1 4 -10 -6 -14 -8 -14 -20 2 -7 10 -14 13
-14 6 0 -13 -18 -12 -39 1 -9 6 -12 5 -7 -2 3 -6 2 -13 -4 -17 -5 -3 -10 0
-10 8 0 7 -7 14 -15 14 -9 0 -11 -4 -6 -11 6 -7 0 -12 -20 -13 -19 -1 -32 3
-36 13 -4 12 -8 11 -22 -5 -13 -15 -21 -17 -35 -9 -15 8 -17 8 -11 -2 6 -10 4
-12 -9 -7 -9 4 -15 3 -12 -2 3 -5 -3 -11 -15 -14 -16 -4 -18 -3 -9 8 8 10 8
15 -1 21 -8 4 -9 3 -5 -4 4 -7 1 -12 -8 -12 -9 0 -16 -5 -16 -11 0 -8 -4 -8
-14 0 -10 8 -16 9 -21 1 -3 -6 -12 -7 -18 -3 -8 4 -7 1 1 -9 11 -14 10 -16 -9
-11 -17 5 -20 3 -14 -8 5 -8 4 -11 -1 -6 -5 5 -9 13 -9 18 0 5 -4 8 -10 7 -5
-2 -9 -6 -8 -10 4 -10 -63 -21 -87 -15 -11 3 -18 0 -17 -7 1 -6 -10 -11 -25
-11 -19 1 -24 -3 -17 -11 7 -8 -1 -11 -31 -9 -22 1 -43 -2 -46 -6 -3 -5 -11
-6 -17 -2 -7 4 -5 -2 3 -12 9 -11 10 -16 3 -11 -8 4 -13 2 -13 -6 0 -10 -3 -9
-9 2 -6 8 -7 19 -4 25 4 5 2 6 -3 2 -5 -5 -10 -13 -10 -18 -1 -5 -2 -11 -3
-14 0 -3 -10 -1 -21 5 -14 7 -20 7 -20 0 0 -5 6 -10 13 -10 8 0 7 -3 -3 -10
-9 -6 -17 -5 -22 3 -6 9 -8 8 -8 -3 0 -13 -1 -13 -10 0 -8 13 -10 12 -10 -4 0
-12 -5 -16 -16 -12 -10 4 -13 2 -8 -6 5 -8 2 -9 -10 -5 -14 5 -17 3 -12 -8 7
-18 -3 -20 -18 -2 -6 7 -10 11 -9 9 1 -2 -7 -14 -19 -26 -14 -14 -22 -17 -25
-8 -3 6 -9 12 -15 12 -6 0 -8 -6 -5 -13 3 -7 -5 -19 -16 -27 -20 -12 -21 -12
-8 4 12 14 12 16 -3 10 -9 -3 -16 -10 -16 -16 0 -5 -5 -6 -12 -2 -8 5 -9 2 -5
-10 4 -9 3 -14 -2 -11 -5 3 -13 1 -16 -5 -4 -6 -16 -8 -27 -4 -14 4 -18 2 -14
-5 4 -6 2 -12 -3 -12 -6 -1 -17 -2 -23 -3 -7 -1 -12 -7 -11 -14 2 -7 -4 -9
-14 -5 -12 5 -14 3 -8 -8 7 -12 6 -12 -11 1 -10 8 -16 11 -12 6 4 -4 2 -14 -5
-21 -9 -10 -14 -9 -24 4 -12 15 -13 15 -7 0 3 -10 0 -20 -7 -25 -8 -5 -10 -3
-4 7 8 12 6 12 -8 0 -14 -11 -17 -11 -17 0 0 12 -2 12 -9 1 -7 -11 -9 -10 -15
3 -3 9 -11 13 -17 9 -8 -4 -9 1 -4 17 3 13 3 19 -2 14 -10 -13 -28 -13 -40 -1
-5 5 -3 6 5 2 6 -4 12 -2 12 4 0 6 -8 9 -18 6 -13 -5 -23 1 -31 16 -6 13 -9
15 -7 6 3 -10 0 -20 -6 -24 -7 -4 -8 -3 -4 4 4 7 2 12 -4 12 -6 0 -8 5 -4 12
5 8 2 9 -9 5 -11 -4 -17 -1 -17 8 0 8 -5 15 -11 15 -5 0 -8 -4 -5 -8 3 -5 -1
-9 -9 -9 -8 0 -13 2 -11 5 3 2 -7 15 -22 27 -15 13 -31 20 -36 15 -12 -12 -36
-1 -30 15 5 13 -22 29 -36 20 -5 -3 -12 0 -16 6 -4 7 -3 9 4 5 6 -3 13 -2 17
3 3 6 13 7 22 4 10 -4 14 -2 9 5 -3 6 -1 14 5 18 7 4 9 3 5 -4 -3 -6 -2 -13 4
-17 5 -3 10 1 10 10 0 9 5 13 10 10 14 -9 12 8 -2 24 -11 11 -10 12 1 6 21
-12 61 -13 68 -1 3 5 1 6 -5 2 -21 -13 -13 5 11 24 15 12 26 15 34 9 7 -7 14
-6 19 2 5 8 3 9 -6 4 -9 -6 -11 -4 -5 4 4 7 17 10 30 7 13 -3 27 -2 30 4 3 6
-1 7 -9 4 -9 -3 -16 -1 -16 6 0 6 -5 8 -12 4 -6 -4 -8 -3 -4 4 7 11 37 9 58
-4 7 -5 8 -3 2 7 -14 23 -13 38 2 32 8 -3 11 -9 8 -14 -11 -19 3 -8 32 23 16
18 22 27 12 20 -12 -10 -18 -10 -24 -1 -4 7 -3 9 4 5 6 -3 14 -1 17 4 5 8 14
5 28 -7 21 -17 21 -17 8 0 -12 16 -12 20 4 35 17 15 17 15 6 0 -8 -11 -9 -18
-1 -23 6 -4 9 -1 8 6 -2 7 2 13 9 14 6 0 15 4 20 9 5 5 3 6 -4 2 -18 -10 -16
2 2 20 14 14 19 11 16 -9 -1 -5 3 -5 9 -2 8 5 5 16 -6 33 -14 22 -15 25 -2 14
12 -9 18 -10 23 -2 5 8 12 7 23 -2 15 -11 15 -11 5 2 -10 13 -7 21 13 45 14
17 23 24 19 18 -4 -9 2 -12 17 -11 16 1 25 9 25 21 2 24 6 28 31 30 12 0 18 6
15 14 -4 11 -8 11 -22 1 -14 -11 -14 -11 -3 4 7 9 22 15 32 13 14 -3 17 1 13
12 -5 13 -2 15 11 10 15 -6 18 -3 14 16 -3 15 0 24 8 24 7 0 11 -5 10 -11 -2
-6 -1 -8 1 -3 3 4 9 4 15 1 6 -4 6 2 -1 14 -10 18 -8 20 9 17 11 -2 23 1 26 7
4 7 2 8 -4 4 -7 -4 -12 -1 -12 9 0 9 5 13 10 10 9 -6 14 8 11 28 -1 4 7 3 18
-2 16 -9 18 -8 15 7 -3 10 8 32 27 52 17 19 25 26 18 16 -12 -17 -12 -19 1
-14 8 2 16 14 18 26 2 12 10 22 18 22 8 0 14 5 14 11 0 5 6 7 13 3 8 -5 8 -2
-2 9 -11 14 -11 20 -1 32 8 10 17 12 24 6 11 -9 14 -2 18 46 1 7 5 10 10 7 5
-3 6 -9 3 -14 -3 -5 -1 -12 5 -15 6 -4 10 -3 9 2 -4 21 2 34 13 27 7 -4 8 -3
4 5 -4 6 -13 8 -19 5 -7 -4 -4 2 7 12 13 14 20 15 23 7 3 -7 9 -13 14 -13 6 0
7 6 3 12 -5 7 -9 21 -9 30 -1 15 1 15 14 5 12 -10 13 -9 7 2 -6 9 0 20 16 35
13 11 18 17 11 12 -8 -5 -13 -4 -13 3 0 6 11 16 24 21 13 5 28 15 32 22 6 10
5 11 -7 1 -12 -10 -15 -8 -15 7 0 13 6 17 22 14 18 -3 21 0 17 16 -3 11 -10
20 -16 20 -6 0 -8 2 -5 5 9 10 38 -7 31 -18 -4 -6 -1 -7 6 -3 9 6 8 13 -5 27
-14 16 -15 19 -3 14 9 -3 22 2 30 11 9 12 10 15 2 10 -7 -4 -13 -2 -13 3 0 6
7 11 16 11 14 0 15 2 3 17 -11 13 -11 15 -1 9 20 -12 50 20 46 50 -2 20 0 23
11 14 10 -8 15 -8 21 1 4 7 3 9 -3 6 -6 -4 -13 1 -15 11 -3 11 0 19 8 19 7 0
11 -4 8 -9 -3 -4 2 -5 11 -1 12 4 13 8 5 13 -7 4 -9 13 -5 20 6 9 9 9 16 -1 6
-10 9 -10 9 -2 0 7 -7 16 -16 21 -15 8 -15 10 0 15 10 4 15 3 12 -1 -3 -5 1
-9 9 -9 10 0 11 5 4 19 -8 14 -6 18 8 19 10 0 13 3 6 6 -10 3 -10 7 0 18 7 7
15 11 20 8 4 -2 7 1 7 6 0 6 -4 11 -10 11 -14 0 -12 13 6 36 15 19 15 18 5 -2
-7 -16 -7 -21 3 -21 9 0 13 11 12 28 -2 28 -1 28 18 11 19 -17 19 -17 3 8 -21
30 -23 51 -2 24 14 -18 14 -18 10 4 -3 18 0 22 10 18 8 -3 17 -1 20 5 4 5 3 9
-2 8 -20 -4 -34 2 -28 12 4 6 13 8 21 5 8 -3 11 0 7 9 -3 8 -10 12 -16 8 -6
-3 -7 -1 -3 5 4 6 14 8 22 5 14 -5 15 -3 5 14 -8 16 -7 24 4 33 8 6 19 9 24 5
7 -3 8 0 5 9 -3 9 -11 16 -17 16 -6 0 -7 3 -4 6 4 4 14 1 23 -7 16 -13 16 -12
5 10 -9 16 -9 21 -2 16 8 -4 10 1 7 18 -3 16 1 24 10 24 10 0 11 -4 3 -13 -7
-8 -6 -14 2 -20 7 -4 9 -3 5 4 -3 6 -2 13 3 17 6 3 8 12 5 20 -4 8 -11 12 -17
8 -6 -3 -7 -1 -3 6 6 9 11 9 21 1 10 -8 15 -8 21 1 4 7 3 9 -3 6 -6 -4 -13 2
-16 14 -4 15 -2 18 7 10 8 -7 12 -5 13 10 1 12 -3 17 -10 13 -7 -3 -4 1 5 9
13 10 14 17 6 25 -8 8 -5 9 11 5 12 -3 22 -1 22 6 1 6 2 16 3 21 0 6 8 15 16
21 13 9 13 10 -1 6 -13 -4 -16 0 -15 17 0 13 6 21 12 19 7 -2 15 1 19 6 3 6
11 8 17 5 7 -4 8 -2 4 5 -4 6 -11 9 -16 6 -4 -3 -10 2 -14 10 -3 8 -1 17 5 20
5 4 7 10 4 15 -7 12 30 32 40 22 5 -4 5 -1 1 6 -4 7 -11 10 -16 7 -5 -3 -11
-1 -14 4 -4 5 5 8 18 7 21 -3 23 0 21 35 -2 20 -6 42 -9 47 -3 6 3 8 16 6 13
-2 18 -2 11 2 -9 4 -7 11 6 25 18 20 27 74 10 63 -5 -3 -9 -3 -9 0 0 3 12 13
28 21 15 9 19 14 10 11 -10 -3 -20 -1 -23 5 -4 5 -1 8 6 7 8 -2 13 6 14 19 0
12 4 25 9 30 5 4 6 3 2 -4 -3 -6 -2 -14 3 -17 5 -3 7 10 5 29 -1 19 2 38 8 41
7 5 8 2 3 -7 -7 -12 -6 -12 6 0 11 10 11 15 2 18 -7 3 -13 9 -13 15 0 6 7 7
16 4 14 -5 15 -4 4 9 -8 10 -9 15 -1 15 6 0 11 7 11 16 0 9 5 12 12 8 7 -4 8
-3 4 5 -6 9 -11 9 -21 1 -10 -8 -15 -8 -21 2 -4 7 -4 10 0 6 12 -10 45 23 38
40 -4 11 -2 13 8 7 9 -5 11 -4 6 4 -6 9 -11 9 -22 0 -9 -7 -14 -8 -14 -1 0 6
12 15 28 20 15 6 20 11 12 11 -17 1 -24 37 -9 46 5 4 6 12 3 18 -5 9 -3 9 6 0
11 -10 11 -15 0 -28 -8 -10 -9 -15 -1 -15 12 0 12 0 16 49 2 19 -1 28 -5 21
-5 -8 -7 0 -7 18 1 17 5 28 10 25 4 -2 4 -9 1 -15 -4 -7 -2 -8 4 -4 9 5 9 13
2 27 -10 18 -4 24 23 20 4 0 7 4 7 9 0 6 -6 10 -13 8 -7 -2 -13 0 -14 4 -3 16
10 48 19 48 5 0 6 -5 2 -12 -4 -6 -3 -8 4 -4 7 4 7 14 -3 33 -8 16 -11 33 -6
42 5 9 7 24 6 34 -2 9 0 15 4 13 4 -3 13 5 21 17 12 19 11 21 -2 9 -13 -10
-15 -8 -11 15 2 16 5 36 7 45 1 10 5 21 9 24 12 12 8 26 -5 18 -7 -4 -8 -3 -4
4 4 7 15 12 24 12 14 0 15 2 2 9 -8 6 -18 7 -24 4 -5 -3 -6 -1 -2 6 4 6 11 9
16 6 5 -3 11 -1 15 5 3 5 -2 10 -11 10 -16 0 -16 1 2 16 19 15 19 16 -1 10
-18 -5 -17 -4 4 14 13 11 19 20 13 20 -6 0 -9 14 -7 30 3 22 1 29 -8 23 -7 -4
-7 0 2 10 7 9 18 14 24 10 6 -3 7 -1 3 5 -4 6 -13 9 -21 5 -11 -4 -13 -1 -9
11 3 9 10 14 14 11 5 -3 12 0 16 6 4 7 3 9 -3 6 -6 -4 -15 5 -22 19 -9 20 -9
25 1 21 7 -2 11 -11 10 -18 -2 -8 0 -10 4 -6 11 11 14 38 4 32 -5 -3 -11 -1
-15 5 -3 5 -1 10 6 10 8 0 6 6 -4 18 -10 10 -14 22 -10 26 4 4 8 27 8 52 1 30
7 48 20 58 13 9 15 15 6 20 -6 4 -8 12 -5 18 4 7 2 8 -4 4 -7 -4 -12 -4 -13 1
0 4 -2 20 -4 36 -2 15 1 27 6 27 6 0 8 -4 4 -9 -3 -5 -1 -12 4 -15 5 -4 8 2 7
11 -2 10 2 22 8 26 7 6 4 7 -6 3 -10 -3 -20 -1 -23 4 -4 6 -2 10 4 10 6 0 8 7
5 15 -4 8 -11 12 -16 9 -6 -4 -5 2 1 14 6 11 8 28 5 36 -7 19 6 21 26 4 8 -7
6 -3 -4 9 -10 13 -22 21 -26 18 -4 -2 -7 2 -7 10 0 8 4 12 9 9 4 -3 8 7 8 21
0 18 -4 24 -12 19 -9 -5 -9 -2 1 9 7 9 9 17 4 17 -8 0 -10 32 -3 50 1 3 2 8 1
13 0 4 5 7 11 7 7 0 5 5 -4 11 -10 5 -18 21 -18 35 0 17 4 23 12 18 7 -4 8 -3
4 4 -4 6 -13 9 -21 5 -8 -3 -15 0 -15 6 0 6 8 11 18 12 16 0 16 1 1 11 -16 11
-16 13 0 27 9 9 12 13 7 9 -16 -13 -31 -9 -19 3 16 16 5 39 -15 33 -9 -3 -6 2
8 10 14 8 20 15 13 16 -6 0 -10 9 -8 20 2 11 0 22 -4 25 -5 2 -7 -9 -6 -25 1
-16 -1 -28 -5 -25 -4 3 -6 21 -4 40 1 19 -1 37 -7 40 -5 4 -5 13 1 25 9 17 8
19 -7 13 -10 -3 -15 -3 -11 2 4 4 2 15 -5 23 -6 9 -7 13 -2 10 6 -3 15 0 22 7
10 10 9 14 -3 19 -10 4 -13 2 -8 -6 4 -7 3 -8 -5 -4 -6 4 -9 11 -6 16 3 5 1
11 -4 15 -7 3 -7 15 -1 30 7 19 6 25 -8 28 -15 4 -14 5 2 6 16 1 16 3 -5 21
-21 17 -22 21 -9 30 13 9 13 10 0 11 -8 1 -19 1 -23 0 -4 -1 0 11 10 26 13 19
14 25 4 18 -11 -6 -13 -4 -8 8 3 10 3 17 -2 17 -5 0 -11 9 -14 20 -3 11 -2 18
2 15 4 -2 8 2 8 10 0 8 -4 12 -9 9 -4 -3 -16 0 -25 5 -10 6 -13 11 -8 11 6 0
16 10 24 23 10 17 11 19 0 10 -19 -19 -34 -16 -18 4 10 11 10 14 2 9 -8 -4
-13 -2 -13 8 0 8 5 16 12 18 7 3 5 7 -6 11 -9 4 -15 3 -12 -1 2 -4 0 -14 -5
-22 -9 -13 -10 -13 -8 0 3 30 -1 41 -13 34 -7 -4 -8 -3 -4 4 4 6 14 8 23 5 15
-6 16 -5 3 9 -8 9 -19 13 -25 10 -5 -3 -3 3 5 13 9 11 10 16 3 11 -8 -4 -13
-1 -13 8 0 9 -5 16 -12 16 -6 0 -9 3 -5 6 3 4 -1 13 -9 21 -12 12 -12 18 -2
31 11 13 11 14 -1 7 -11 -6 -13 -4 -8 8 3 9 2 19 -4 22 -5 4 -7 10 -4 15 3 5
-4 7 -16 5 -17 -4 -19 -2 -9 10 10 12 9 15 -5 15 -13 0 -15 3 -6 13 14 18 2
30 -16 15 -7 -6 -16 -8 -20 -4 -3 3 -1 6 5 6 7 0 12 7 12 16 0 9 -5 12 -12 8
-8 -5 -7 0 2 11 8 10 11 16 5 13 -5 -3 -16 0 -23 8 -10 11 -10 14 0 14 7 1 2
7 -12 14 -14 8 -27 13 -31 11 -3 -2 -6 2 -6 10 0 11 4 12 13 4 9 -7 14 -6 20
3 4 7 4 10 -1 6 -4 -4 -14 0 -22 8 -12 12 -13 17 -2 30 7 8 8 14 3 13 -22 -4
-35 2 -28 13 4 7 3 8 -5 4 -6 -4 -9 -11 -6 -16 3 -5 2 -11 -3 -14 -5 -3 -9 0
-10 7 -7 50 -11 62 -22 59 -8 -2 -10 3 -6 14 5 13 4 14 -7 6 -19 -16 -28 -3
-16 21 7 13 7 17 1 13 -6 -3 -14 3 -17 15 -4 11 -9 18 -12 16 -2 -3 0 -16 7
-29 10 -20 10 -21 -3 -6 -8 10 -17 15 -21 11 -4 -4 -4 1 0 11 5 13 4 17 -4 12
-8 -5 -10 -1 -5 10 4 12 3 15 -5 10 -7 -4 -12 -2 -12 4 0 6 -5 8 -11 4 -8 -4
-9 0 -4 15 5 17 3 20 -11 14 -14 -5 -16 -3 -11 12 6 14 5 16 -7 6 -11 -9 -15
-8 -20 4 -3 9 -11 13 -17 9 -8 -4 -9 -3 -5 4 4 7 3 12 -3 12 -5 0 -11 10 -13
22 -2 14 -11 22 -25 23 -13 1 -26 5 -30 10 -5 4 0 5 10 2 12 -4 16 -3 11 4 -3
6 -15 8 -26 6 -15 -4 -18 -1 -13 14 4 11 2 19 -5 19 -6 0 -8 5 -4 11 3 6 -6 3
-22 -7 -15 -11 -25 -13 -20 -6 4 7 1 14 -8 18 -9 3 -13 10 -10 15 3 5 0 9 -6
9 -6 0 -8 6 -4 13 4 6 4 9 -1 5 -4 -4 -15 -2 -24 5 -12 9 -11 5 3 -18 l19 -30
-25 23 c-13 12 -29 19 -33 15 -5 -5 -3 0 5 10 7 10 9 17 4 15 -15 -4 -74 20
-74 30 0 6 -7 12 -14 15 -11 4 -13 1 -9 -10 4 -11 2 -14 -5 -9 -7 4 -12 14
-12 23 0 12 -3 13 -14 4 -12 -10 -18 -7 -31 13 -14 21 -21 24 -36 15 -15 -8
-19 -6 -19 7 0 12 -3 14 -13 6 -14 -12 -52 10 -39 23 4 4 -4 2 -16 -5 -22 -11
-23 -10 -17 12 4 16 3 19 -3 9 -7 -10 -11 -10 -17 -1 -5 8 -12 6 -26 -6 -19
-17 -20 -17 -13 1 6 14 4 16 -7 10 -7 -5 -22 -10 -31 -10 -14 -1 -15 1 -6 12
6 7 8 16 4 20 -3 3 -6 1 -6 -6 0 -7 -5 -9 -12 -4 -22 13 -63 9 -70 -7 -5 -11
-7 -9 -7 7 -1 12 -6 25 -13 29 -8 5 -9 2 -5 -9 3 -9 1 -19 -5 -23 -6 -4 -8 -3
-5 3 9 14 -45 24 -58 12 -7 -7 -3 -8 10 -4 16 5 17 5 5 -3 -10 -8 -18 -8 -27
-1 -7 6 -18 7 -24 3 -7 -4 -9 -3 -6 2 3 5 -10 10 -28 10 -18 0 -31 -4 -29 -8
3 -5 10 -5 16 -2 7 4 8 2 4 -4 -9 -15 -12 -15 -30 4 -9 8 -16 10 -16 4 0 -7
-6 -8 -18 -1 -10 6 -24 6 -32 1 -16 -10 -33 -3 -25 11 10 15 -2 10 -16 -8z
m345 -21 c3 -5 -1 -9 -9 -9 -8 0 -12 4 -9 9 3 4 7 8 9 8 2 0 6 -4 9 -8z m132
-38 c1 -9 0 -13 -4 -10 -3 4 -7 14 -8 22 -1 9 0 13 4 10 3 -4 7 -14 8 -22z
m-1164 -196 c-7 -7 -12 -8 -12 -2 0 14 12 26 19 19 2 -3 -1 -11 -7 -17z m1603
2 c3 -5 1 -10 -4 -10 -6 0 -11 5 -11 10 0 6 2 10 4 10 3 0 8 -4 11 -10z m72
-72 c-3 -8 -6 -5 -6 6 -1 11 2 17 5 13 3 -3 4 -12 1 -19z m-1972 -156 c-3 -3
-11 0 -18 7 -9 10 -8 11 6 5 10 -3 15 -9 12 -12z m-85 -52 c0 -5 -5 -10 -11
-10 -5 0 -7 5 -4 10 3 6 8 10 11 10 2 0 4 -4 4 -10z m2275 -10 c-3 -5 -12 -10
-18 -10 -7 0 -6 4 3 10 19 12 23 12 15 0z m48 -65 c-3 -9 -8 -14 -10 -11 -3 3
-2 9 2 15 9 16 15 13 8 -4z m-2413 -19 c0 -3 -4 -8 -10 -11 -5 -3 -10 -1 -10
4 0 6 5 11 10 11 6 0 10 -2 10 -4z m-93 -91 c0 -8 -4 -12 -9 -9 -5 3 -6 10 -3
15 9 13 12 11 12 -6z m-3427 -35 c0 -5 -7 -7 -15 -4 -8 4 -12 10 -9 15 6 11
24 2 24 -11z m806 8 c4 -7 3 -8 -4 -4 -7 4 -12 2 -12 -5 0 -7 -3 -10 -6 -6 -6
5 3 27 11 27 2 0 7 -5 11 -12z m5268 -86 c3 -5 -1 -9 -9 -9 -8 0 -15 4 -15 9
0 4 4 8 9 8 6 0 12 -4 15 -8z m-5014 -30 c0 -8 -1 -13 -3 -11 -1 2 -9 12 -16
22 -12 15 -12 17 3 11 9 -3 16 -13 16 -22z m2145 -112 c-3 -5 -12 -10 -18 -10
-7 0 -6 4 3 10 19 12 23 12 15 0z m-65 -114 c0 -3 -4 -8 -10 -11 -5 -3 -10 -1
-10 4 0 6 5 11 10 11 6 0 10 -2 10 -4z m-3637 -46 c-10 -11 -19 -20 -21 -20
-1 0 2 9 8 20 6 11 15 20 20 20 6 0 2 -9 -7 -20z m2053 -56 c-1 -8 -6 -17 -12
-21 -5 -4 -6 -4 -2 1 4 5 3 14 -2 21 -7 8 -5 12 4 12 8 0 13 -6 12 -13z
m-2165 -117 c-10 -9 -11 -8 -5 6 3 10 9 15 12 12 3 -3 0 -11 -7 -18z m2644
-416 c3 -5 2 -12 -3 -15 -5 -3 -9 1 -9 9 0 17 3 19 12 6z m4292 -36 c0 -8 -4
-12 -9 -9 -5 3 -6 10 -3 15 9 13 12 11 12 -6z m-3627 -110 c0 -1 -6 -7 -13
-13 -10 -8 -13 -6 -13 7 0 11 6 17 13 14 7 -3 13 -6 13 -8z m3655 -265 c3 -5
1 -10 -4 -10 -6 0 -11 5 -11 10 0 6 2 10 4 10 3 0 8 -4 11 -10z m-44 -353
c-10 -9 -11 -8 -5 6 3 10 9 15 12 12 3 -3 0 -11 -7 -18z m-7115 -127 c0 -12
-4 -16 -9 -11 -5 5 -6 14 -3 20 10 15 12 14 12 -9z m1 -45 c0 -8 -4 -12 -9 -9
-5 3 -6 10 -3 15 9 13 12 11 12 -6z m6918 -773 c-17 -15 -18 -15 -6 0 7 9 9
23 5 30 -6 10 -4 11 7 0 11 -10 10 -15 -6 -30z m-111 -313 c-3 -5 -10 -7 -15
-3 -5 3 -7 10 -3 15 3 5 10 7 15 3 5 -3 7 -10 3 -15z m-6427 -204 c0 -8 -4
-12 -9 -9 -5 3 -6 10 -3 15 9 13 12 11 12 -6z m8015 -307 c-7 -7 -12 -8 -12
-2 0 14 12 26 19 19 2 -3 -1 -11 -7 -17z m-1912 -132 c0 -3 -4 -8 -10 -11 -5
-3 -10 -1 -10 4 0 6 5 11 10 11 6 0 10 -2 10 -4z m1800 -45 c0 -6 -4 -12 -8
-15 -5 -3 -9 1 -9 9 0 8 4 15 9 15 4 0 8 -4 8 -9z m-7605 -61 c-3 -5 -2 -10 3
-10 6 0 13 -8 16 -17 6 -15 5 -15 -13 1 -18 16 -20 36 -5 36 3 0 2 -4 -1 -10z
m5485 -320 c0 -5 -5 -10 -11 -10 -5 0 -7 5 -4 10 3 6 8 10 11 10 2 0 4 -4 4
-10z m3307 -12 c-3 -8 -6 -5 -6 6 -1 11 2 17 5 13 3 -3 4 -12 1 -19z m-634
-13 c-3 -9 -8 -14 -10 -11 -3 3 -2 9 2 15 9 16 15 13 8 -4z m267 -69 c0 -3 -4
-8 -10 -11 -5 -3 -10 -1 -10 4 0 6 5 11 10 11 6 0 10 -2 10 -4z m260 -31 c0
-5 -5 -3 -10 5 -5 8 -10 20 -10 25 0 6 5 3 10 -5 5 -8 10 -19 10 -25z m-50
-45 c0 -5 -5 -10 -11 -10 -5 0 -7 5 -4 10 3 6 8 10 11 10 2 0 4 -4 4 -10z
m-1790 -64 c0 -2 -7 -7 -16 -10 -8 -3 -12 -2 -9 4 6 10 25 14 25 6z m-38 -43
c-6 -3 -9 -10 -6 -15 4 -7 2 -8 -5 -4 -9 6 -9 11 0 22 6 8 15 12 18 8 3 -4 0
-9 -7 -11z m-1612 -47 c0 -3 -4 -8 -10 -11 -5 -3 -10 -1 -10 4 0 6 5 11 10 11
6 0 10 -2 10 -4z m-4547 -107 c-8 -8 -13 -7 -18 2 -5 8 -4 10 3 5 7 -4 12 -2
12 5 0 7 3 9 7 6 4 -4 2 -12 -4 -18z m5807 -69 c12 -7 10 -9 -8 -7 -12 0 -22
5 -22 9 0 11 12 10 30 -2z m150 -12 c0 -5 -10 -6 -21 -3 -16 6 -20 4 -13 -6 6
-12 5 -12 -9 0 -22 18 -22 17 13 17 17 0 30 -4 30 -8z m-5860 -8 c0 -5 -2 -10
-4 -10 -3 0 -8 5 -11 10 -3 6 -1 10 4 10 6 0 11 -4 11 -10z m5930 4 c0 -8 -19
-13 -24 -6 -3 5 1 9 9 9 8 0 15 -2 15 -3z m-670 -14 c0 -5 -5 -10 -11 -10 -5
0 -7 5 -4 10 3 6 8 10 11 10 2 0 4 -4 4 -10z m-5180 -30 c0 -5 -2 -10 -4 -10
-3 0 -8 5 -11 10 -3 6 -1 10 4 10 6 0 11 -4 11 -10z m4734 -86 c3 -8 2 -12 -4
-9 -6 3 -10 10 -10 16 0 14 7 11 14 -7z m-874 -74 c0 -5 -5 -10 -11 -10 -5 0
-7 5 -4 10 3 6 8 10 11 10 2 0 4 -4 4 -10z m70 -35 c7 -9 8 -15 2 -15 -5 0
-12 7 -16 15 -3 8 -4 15 -2 15 2 0 9 -7 16 -15z m-3550 -59 c0 -3 -4 -8 -10
-11 -5 -3 -10 -1 -10 4 0 6 5 11 10 11 6 0 10 -2 10 -4z m6834 -304 c-4 -6
-53 32 -54 41 0 5 13 -2 29 -15 15 -13 27 -25 25 -26z m-8280 -741 c3 -5 -1
-11 -9 -14 -9 -4 -12 -1 -8 9 6 16 10 17 17 5z m9140 -1007 c3 -8 2 -12 -4 -9
-6 3 -10 10 -10 16 0 14 7 11 14 -7z m-12474 -1128 c0 -2 -8 -10 -17 -17 -16
-13 -17 -12 -4 4 13 16 21 21 21 13z m424 -54 c3 -5 -1 -9 -9 -9 -8 0 -15 4
-15 9 0 4 4 8 9 8 6 0 12 -4 15 -8z m40 0 c3 -5 -1 -9 -9 -9 -8 0 -12 4 -9 9
3 4 7 8 9 8 2 0 6 -4 9 -8z m76 -7 c0 -12 -19 -12 -23 0 -4 9 -1 12 9 8 7 -3
14 -7 14 -8z m11570 -449 c0 -11 -19 -15 -25 -6 -3 5 1 10 9 10 9 0 16 -2 16
-4z m-9292 -251 c-3 -3 -9 2 -12 12 -6 14 -5 15 5 6 7 -7 10 -15 7 -18z m9127
-5 c-3 -5 -12 -10 -18 -10 -7 0 -6 4 3 10 19 12 23 12 15 0z m-9021 -66 c3 -8
2 -12 -4 -9 -6 3 -10 10 -10 16 0 14 7 11 14 -7z m8801 -194 c3 -6 -1 -7 -9
-4 -18 7 -21 14 -7 14 6 0 13 -4 16 -10z m-8065 -404 c0 -3 -4 -8 -10 -11 -5
-3 -10 -1 -10 4 0 6 5 11 10 11 6 0 10 -2 10 -4z m440 -356 c0 -5 -2 -10 -4
-10 -3 0 -8 5 -11 10 -3 6 -1 10 4 10 6 0 11 -4 11 -10z m5517 -172 c-3 -8 -6
-5 -6 6 -1 11 2 17 5 13 3 -3 4 -12 1 -19z m-4926 -135 c13 -17 13 -17 -6 -3
-11 8 -22 16 -24 17 -2 2 0 3 6 3 6 0 17 -8 24 -17z m449 -147 c0 -3 -4 -8
-10 -11 -5 -3 -10 -1 -10 4 0 6 5 11 10 11 6 0 10 -2 10 -4z m2651 -69 c-10
-9 -11 -8 -5 6 3 10 9 15 12 12 3 -3 0 -11 -7 -18z"/>
<path d="M10595 13671 c-3 -5 -2 -12 3 -15 5 -3 9 1 9 9 0 17 -3 19 -12 6z"/>
<path d="M9760 13661 c0 -7 -5 -9 -12 -5 -7 5 -8 3 -3 -5 5 -9 10 -10 18 -2 6
6 8 14 4 18 -4 3 -7 1 -7 -6z"/>
<path d="M10695 13631 c-3 -5 -2 -12 3 -15 5 -3 9 1 9 9 0 17 -3 19 -12 6z"/>
<path d="M10931 13504 c0 -11 3 -14 6 -6 3 7 2 16 -1 19 -3 4 -6 -2 -5 -13z"/>
<path d="M11080 13386 c0 -8 4 -17 9 -20 5 -4 7 3 4 14 -6 23 -13 26 -13 6z"/>
<path d="M9156 13371 c-4 -5 -2 -12 3 -15 5 -4 12 -2 15 3 4 5 2 12 -3 15 -5
4 -12 2 -15 -3z"/>
<path d="M5561 13044 c0 -11 3 -14 6 -6 3 7 2 16 -1 19 -3 4 -6 -2 -5 -13z"/>
<path d="M6115 13000 c3 -5 8 -10 11 -10 2 0 4 5 4 10 0 6 -5 10 -11 10 -5 0
-7 -4 -4 -10z"/>
<path d="M8740 12992 c0 -6 -7 -18 -16 -27 -9 -9 -14 -18 -11 -21 3 -3 13 6
23 20 9 15 14 29 10 33 -3 3 -6 1 -6 -5z"/>
<path d="M5290 12959 c0 -5 5 -7 10 -4 6 3 10 8 10 11 0 2 -4 4 -10 4 -5 0
-10 -5 -10 -11z"/>
<path d="M6250 12959 c0 -5 5 -7 10 -4 6 3 10 8 10 11 0 2 -4 4 -10 4 -5 0
-10 -5 -10 -11z"/>
<path d="M6336 12923 c-6 -14 -5 -15 5 -6 7 7 10 15 7 18 -3 3 -9 -2 -12 -12z"/>
<path d="M11466 12838 c3 -5 10 -6 15 -3 13 9 11 12 -6 12 -8 0 -12 -4 -9 -9z"/>
<path d="M8470 12686 c0 -2 8 -10 18 -17 15 -13 16 -12 3 4 -13 16 -21 21 -21
13z"/>
<path d="M11600 12510 c-9 -6 -10 -10 -3 -10 6 0 15 5 18 10 8 12 4 12 -15 0z"/>
<path d="M8323 12423 c-15 -5 -17 -23 -4 -23 5 0 11 7 15 15 3 8 4 15 3 14 -1
0 -8 -3 -14 -6z"/>
<path d="M11626 12368 c3 -5 10 -6 15 -3 13 9 11 12 -6 12 -8 0 -12 -4 -9 -9z"/>
<path d="M7100 12367 c0 -2 6 -10 14 -16 11 -9 16 -9 22 1 4 7 4 10 -1 6 -4
-4 -14 -3 -22 3 -7 6 -13 9 -13 6z"/>
<path d="M11645 12310 c-3 -5 -1 -10 4 -10 6 0 11 5 11 10 0 6 -2 10 -4 10 -3
0 -8 -4 -11 -10z"/>
<path d="M11714 11759 c-3 -6 -2 -15 3 -20 5 -5 9 -1 9 11 0 23 -2 24 -12 9z"/>
<path d="M7596 11722 c-3 -5 1 -15 8 -21 11 -10 14 -9 12 3 -3 21 -13 29 -20
18z"/>
<path d="M11715 11551 c-3 -5 -2 -12 3 -15 5 -3 9 1 9 9 0 17 -3 19 -12 6z"/>
<path d="M4510 11516 c0 -2 8 -10 18 -17 15 -13 16 -12 3 4 -13 16 -21 21 -21
13z"/>
<path d="M11714 11498 c2 -13 -1 -28 -6 -34 -5 -7 -4 -13 4 -17 9 -3 13 7 13
34 1 22 -3 39 -7 39 -4 0 -6 -10 -4 -22z"/>
<path d="M11686 11088 c3 -5 10 -6 15 -3 13 9 11 12 -6 12 -8 0 -12 -4 -9 -9z"/>
<path d="M11676 11053 c-6 -14 -5 -15 5 -6 7 7 10 15 7 18 -3 3 -9 -2 -12 -12z"/>
<path d="M11660 10956 c0 -2 7 -7 16 -10 8 -3 12 -2 9 4 -6 10 -25 14 -25 6z"/>
<path d="M11655 10930 c3 -5 8 -10 11 -10 2 0 4 5 4 10 0 6 -5 10 -11 10 -5 0
-7 -4 -4 -10z"/>
<path d="M4575 10790 c-3 -6 1 -7 9 -4 18 7 21 14 7 14 -6 0 -13 -4 -16 -10z"/>
<path d="M4590 10746 c0 -2 7 -7 16 -10 8 -3 12 -2 9 4 -6 10 -25 14 -25 6z"/>
<path d="M11427 10119 c7 -7 15 -10 18 -7 3 3 -2 9 -12 12 -14 6 -15 5 -6 -5z"/>
<path d="M11255 9740 c-3 -5 -5 -10 -3 -11 33 -8 38 -7 27 7 -14 17 -16 17
-24 4z"/>
<path d="M5000 9589 c0 -5 5 -7 10 -4 6 3 10 8 10 11 0 2 -4 4 -10 4 -5 0 -10
-5 -10 -11z"/>
<path d="M13358 9293 c7 -3 16 -2 19 1 4 3 -2 6 -13 5 -11 0 -14 -3 -6 -6z"/>
<path d="M5274 9118 c-4 -7 -3 -8 5 -4 6 4 20 2 29 -6 15 -12 16 -11 3 5 -16
20 -27 22 -37 5z"/>
<path d="M13150 9070 c0 -5 5 -10 11 -10 5 0 7 5 4 10 -3 6 -8 10 -11 10 -2 0
-4 -4 -4 -10z"/>
<path d="M10757 8943 c-11 -11 -8 -20 7 -20 8 0 12 6 9 14 -6 15 -7 15 -16 6z"/>
<path d="M5430 8930 c0 -5 5 -10 11 -10 5 0 7 5 4 10 -3 6 -8 10 -11 10 -2 0
-4 -4 -4 -10z"/>
<path d="M13453 8915 c0 -8 4 -12 9 -9 5 3 6 10 3 15 -9 13 -12 11 -12 -6z"/>
<path d="M10662 8820 c-7 -11 -8 -20 -3 -20 9 0 24 30 18 36 -1 2 -8 -6 -15
-16z"/>
<path d="M13863 8795 c0 -8 4 -12 9 -9 5 3 6 10 3 15 -9 13 -12 11 -12 -6z"/>
<path d="M12076 8731 c-4 -5 -2 -12 3 -15 5 -4 12 -2 15 3 4 5 2 12 -3 15 -5
4 -12 2 -15 -3z"/>
<path d="M12945 8670 c-4 -6 -11 -7 -17 -4 -7 4 -8 2 -4 -5 6 -9 11 -9 22 0
14 11 18 19 10 19 -3 0 -8 -5 -11 -10z"/>
<path d="M13175 8630 c3 -5 8 -10 11 -10 2 0 4 5 4 10 0 6 -5 10 -11 10 -5 0
-7 -4 -4 -10z"/>
<path d="M5715 8590 c-3 -5 -1 -10 4 -10 6 0 11 5 11 10 0 6 -2 10 -4 10 -3 0
-8 -4 -11 -10z"/>
<path d="M10386 8544 c-4 -9 -4 -19 -1 -22 3 -3 5 0 5 7 0 7 4 9 10 6 6 -3 7
1 4 9 -8 20 -10 20 -18 0z"/>
<path d="M12086 8504 c-5 -14 -4 -15 9 -4 17 14 19 20 6 20 -5 0 -12 -7 -15
-16z"/>
<path d="M12890 8429 c0 -5 5 -7 10 -4 6 3 10 8 10 11 0 2 -4 4 -10 4 -5 0
-10 -5 -10 -11z"/>
<path d="M5915 8421 c-3 -5 -2 -12 3 -15 5 -3 9 1 9 9 0 17 -3 19 -12 6z"/>
<path d="M10067 8304 c-8 -8 3 -34 15 -34 7 0 6 5 -1 13 -6 8 -8 17 -4 20 3 4
4 7 1 7 -2 0 -7 -3 -11 -6z"/>
<path d="M6153 8256 c0 -8 5 -14 11 -13 6 1 10 -4 8 -12 -3 -12 0 -12 12 -1 9
7 16 15 16 18 0 3 -3 2 -7 -1 -3 -4 -14 0 -23 8 -14 13 -17 13 -17 1z"/>
<path d="M12510 8260 c0 -5 5 -10 11 -10 5 0 7 5 4 10 -3 6 -8 10 -11 10 -2 0
-4 -4 -4 -10z"/>
<path d="M6270 8180 c0 -5 5 -10 11 -10 5 0 7 5 4 10 -3 6 -8 10 -11 10 -2 0
-4 -4 -4 -10z"/>
<path d="M12797 8143 c-10 -9 -9 -23 1 -23 5 0 9 7 9 15 0 17 -1 18 -10 8z"/>
<path d="M5760 7739 c0 -5 5 -7 10 -4 6 3 10 8 10 11 0 2 -4 4 -10 4 -5 0 -10
-5 -10 -11z"/>
<path d="M13569 7503 c-13 -16 -12 -17 4 -4 9 7 17 15 17 17 0 8 -8 3 -21 -13z"/>
<path d="M13850 7096 c0 -2 7 -7 16 -10 8 -3 12 -2 9 4 -6 10 -25 14 -25 6z"/>
<path d="M13955 6871 c-3 -5 -2 -12 3 -15 5 -3 9 1 9 9 0 17 -3 19 -12 6z"/>
<path d="M4805 6819 c-4 -6 -5 -12 -2 -15 2 -3 7 2 10 11 7 17 1 20 -8 4z"/>
<path d="M14160 5970 c-9 -6 -10 -10 -3 -10 6 0 15 5 18 10 8 12 4 12 -15 0z"/>
<path d="M14165 5910 c3 -5 8 -10 11 -10 2 0 4 5 4 10 0 6 -5 10 -11 10 -5 0
-7 -4 -4 -10z"/>
<path d="M3933 5555 c0 -8 4 -12 9 -9 5 3 6 10 3 15 -9 13 -12 11 -12 -6z"/>
<path d="M2196 5232 c-3 -5 1 -9 9 -9 8 0 12 4 9 9 -3 4 -7 8 -9 8 -2 0 -6 -4
-9 -8z"/>
<path d="M3073 4755 c0 -8 4 -12 9 -9 5 3 6 10 3 15 -9 13 -12 11 -12 -6z"/>
<path d="M3520 4730 c-9 -6 -10 -10 -3 -10 6 0 15 5 18 10 8 12 4 12 -15 0z"/>
<path d="M4116 4652 c-3 -5 1 -9 9 -9 8 0 12 4 9 9 -3 4 -7 8 -9 8 -2 0 -6 -4
-9 -8z"/>
<path d="M4616 4052 c-3 -5 1 -9 9 -9 8 0 12 4 9 9 -3 4 -7 8 -9 8 -2 0 -6 -4
-9 -8z"/>
<path d="M4756 3982 c-3 -5 1 -9 9 -9 8 0 12 4 9 9 -3 4 -7 8 -9 8 -2 0 -6 -4
-9 -8z"/>
<path d="M12467 3199 c7 -7 15 -10 18 -7 3 3 -2 9 -12 12 -14 6 -15 5 -6 -5z"/>
<path d="M5850 3060 c0 -5 5 -10 11 -10 5 0 7 5 4 10 -3 6 -8 10 -11 10 -2 0
-4 -4 -4 -10z"/>
<path d="M10690 3041 c0 -5 5 -13 10 -16 6 -3 10 -2 10 4 0 5 -4 13 -10 16 -5
3 -10 2 -10 -4z"/>
<path d="M10307 2999 c7 -7 15 -10 18 -7 3 3 -2 9 -12 12 -14 6 -15 5 -6 -5z"/>
<path d="M11434 2958 c-4 -7 -4 -10 1 -6 4 4 15 2 24 -5 14 -11 14 -10 2 6
-16 20 -18 21 -27 5z"/>
<path d="M9216 2538 c3 -5 10 -6 15 -3 13 9 11 12 -6 12 -8 0 -12 -4 -9 -9z"/>
<path d="M9076 2503 c-6 -14 -5 -15 5 -6 7 7 10 15 7 18 -3 3 -9 -2 -12 -12z"/>
<path d="M7430 2498 c0 -6 3 -8 7 -5 3 4 13 1 22 -6 14 -11 14 -10 2 6 -15 20
-31 22 -31 5z"/>
<path d="M7490 2500 c0 -5 5 -10 11 -10 5 0 7 5 4 10 -3 6 -8 10 -11 10 -2 0
-4 -4 -4 -10z"/>
<path d="M7612 2481 c5 -17 46 -22 55 -7 3 6 3 8 -2 4 -4 -4 -14 -3 -22 3 -10
9 -13 8 -13 -2 0 -11 -3 -11 -11 1 -8 12 -10 12 -7 1z"/>
<path d="M7775 2449 c-3 -4 2 -6 10 -5 21 3 28 13 10 13 -9 0 -18 -4 -20 -8z"/>
<path d="M8033 2433 c0 -9 4 -10 14 -2 7 6 13 12 13 14 0 1 -6 2 -13 2 -8 0
-14 -6 -14 -14z"/>
</g>
</svg>
